<svg width="136" height="147" viewBox="0 0 136 147" fill="none" xmlns="http://www.w3.org/2000/svg">
<path fill-rule="evenodd" clip-rule="evenodd" d="M120.272 86.9769C119.285 89.141 118.073 90.9519 118.073 90.9519C118.073 90.9519 130.721 89.7161 134.244 97.631C137.767 105.546 131.308 107.598 131.308 107.598V111.759C131.308 111.759 137.476 116.012 135.522 121.315C133.568 126.618 126.952 127.169 126.952 127.169C126.952 127.169 127.805 136.624 117.932 137.775C108.059 138.926 106.826 132.756 106.826 132.756C106.826 132.756 92.3216 146.926 68.5941 146.926C44.8683 146.926 31.6544 133.93 31.6544 133.93C31.6544 133.93 29.7965 136.084 25.7257 137.272C21.653 138.461 11.0037 137.852 10.1899 125.993C10.1899 125.993 -0.734257 125.179 0.0403015 108.004C0.888033 89.2555 17.3733 90.3946 17.3733 90.3946C13.0079 82.3096 10.5289 73.0614 10.5289 63.2398C10.5289 32.3318 35.0739 7.10216 65.7511 5.93461C70.3966 5.75787 73.4413 5.97185 77.8852 6.74457C104.872 11.4387 125.417 34.963 125.417 63.2398C125.417 71.7038 123.575 79.7421 120.272 86.9769Z" fill="#25026A"/>
<path fill-rule="evenodd" clip-rule="evenodd" d="M23.9258 87.071C24.4392 88.0238 24.0824 89.2144 23.1282 89.728C22.1739 90.2417 20.9808 89.8853 20.4657 88.9324C16.3663 81.3409 14.0381 72.6574 14.0381 63.4353C14.0381 34.4162 37.0846 10.7287 65.8855 9.63264C65.9194 9.63135 71.5656 9.09911 77.3248 10.4017C102.64 14.829 121.903 36.9035 121.903 63.4353C121.903 71.3715 120.181 78.9089 117.087 85.6922C116.583 86.8927 116.235 87.5288 116.235 87.5288C115.716 88.4798 114.523 88.8323 113.571 88.3154C112.618 87.7984 112.264 86.6068 112.783 85.6556C112.783 85.6556 113.064 85.134 113.474 84.1538C113.482 84.1346 113.49 84.1154 113.498 84.0964C116.373 77.7992 117.975 70.8025 117.975 63.4353C117.975 38.8213 100.094 18.3434 76.6015 14.2573C76.5676 14.2515 76.5337 14.2447 76.5014 14.2371C71.2395 13.0379 66.0663 13.5511 66.0357 13.5522C39.3337 14.5685 17.968 36.5308 17.968 63.4353C17.968 71.984 20.1251 80.0339 23.9258 87.071Z" fill="#FF85E2"/>
<path fill-rule="evenodd" clip-rule="evenodd" d="M14.6585 116.168C14.6585 116.168 11.4419 115.223 10.7533 109.996C9.90892 103.595 15.387 101.78 17.8094 101.831C20.3615 101.885 21.7388 102.952 22.6195 100.95C23.502 98.9492 21.6177 96.948 16.9667 96.8679C12.3175 96.7879 5.97771 100.859 5.94138 109.155C5.90677 117.355 10.0543 120.859 15.6846 121.523C21.5935 122.219 23.021 119.161 22.7009 117.921C22.379 116.68 20.7353 115.799 19.6141 116.16C18.4911 116.52 16.1258 116.8 14.6585 116.168Z" fill="white"/>
<path fill-rule="evenodd" clip-rule="evenodd" d="M25.8293 99.3681L25.9262 114.161C25.9262 114.161 25.767 121.289 34.2021 121.237C39.4604 121.205 41.0004 116.21 41.0004 114.673C41.0004 113.136 41.0973 101.385 41.0973 101.385C41.0973 101.385 41.1924 99.2401 38.7873 99.2401C36.3822 99.2401 36.6072 101.097 36.6072 101.321C36.6072 101.545 36.5103 113.361 36.5103 113.361C36.5103 113.361 36.7352 116.274 33.3352 116.274C30.6083 116.274 30.3851 113.777 30.3851 113.265V99.0159C30.3851 99.0159 30.4491 96.8667 28.108 96.8667C25.7652 96.8667 25.8293 99.3681 25.8293 99.3681Z" fill="white"/>
<path fill-rule="evenodd" clip-rule="evenodd" d="M44.9748 122.326V102.994C44.9748 102.56 44.9817 100.913 46.9784 100.913C49.0617 100.913 48.9838 101.994 48.9838 101.994H52.1104C52.1104 101.994 58.5246 102.089 58.5246 109.246C58.5246 114.721 52.2956 115.242 51.292 115.242H49.4251V122.766C49.4251 122.766 49.5046 124.527 47.0182 124.527C44.9177 124.527 44.9748 122.326 44.9748 122.326ZM49.323 110.705C49.323 110.705 53.7975 111.176 53.7975 108.594C53.7975 106.012 49.323 106.668 49.323 106.668V110.705Z" fill="white"/>
<path fill-rule="evenodd" clip-rule="evenodd" d="M70.6226 108.176C70.6226 108.176 66.3799 106.943 65.2656 111.122C64.3486 114.559 66.9163 116.309 68.5929 116.661C70.2696 117.014 71.3493 116.198 71.8407 116.021C72.5207 115.777 74.1817 115.252 75.1766 117.174C76.1716 119.095 74.2786 120.055 72.3546 120.92C70.4305 121.784 64.4801 122.504 61.6095 116.725C59.0989 111.67 61.9487 106.279 64.2551 104.686C66.9457 102.828 70.3855 102.365 74.1177 104.91C75.54 105.88 75.7857 107.184 74.8237 108.336C73.8616 109.489 72.82 109.121 70.6226 108.176Z" fill="white"/>
<path fill-rule="evenodd" clip-rule="evenodd" d="M78.1875 117.346L82.3575 104.658C82.3575 104.658 83.1586 101.376 86.2869 101.376C89.4135 101.376 89.9344 104.258 89.9344 104.258L94.4244 118.226C94.4244 118.226 95.2654 121.4 92.4208 121.46C90.5365 121.5 90.0953 119.747 90.0953 119.747L89.0121 116.145H83.6396L82.2363 120.147C82.2363 120.147 82.0443 122.09 79.3104 121.46C76.7046 120.86 78.1875 117.346 78.1875 117.346ZM87.8892 111.822L86.1537 106.593L84.5964 111.822H87.8892Z" fill="white"/>
<path fill-rule="evenodd" clip-rule="evenodd" d="M97.0543 102.687L97.127 118.978C97.127 118.978 96.9678 121.586 99.2449 121.586C101.522 121.586 101.522 119.074 101.522 119.074V115.232L102.996 113.214L108.514 120.867C108.514 120.867 109.582 122.702 111.656 120.675C113.163 119.202 111.881 118.017 111.881 118.017L105.948 109.207L111.317 100.27C111.317 100.27 112.411 98.2477 110.952 97.392C108.471 95.9344 106.938 99.0316 106.938 99.0316L101.608 107.412L101.499 100.671C101.499 100.671 101.463 98.9684 99.5286 98.9952C97.0405 99.0295 97.0232 101.143 97.0543 102.687Z" fill="white"/>
<path fill-rule="evenodd" clip-rule="evenodd" d="M114.895 99.8335V118.817C114.895 118.817 114.785 121.629 117.887 121.629H127.523C127.523 121.629 129.367 121.878 129.494 118.817C129.577 116.851 127.924 116.631 127.924 116.631L119.676 116.558V111.967L123.107 111.894C123.211 111.842 124.869 111.792 124.822 109.315C124.782 107.23 123.034 107.157 123.034 107.157H119.456V101.874H127.281C127.281 101.874 129.22 101.448 129.22 99.3416C129.22 97.235 127.111 97.0074 127.111 97.0074H117.928C117.928 97.0074 114.883 96.7386 114.895 99.8335Z" fill="white"/>
<path fill-rule="evenodd" clip-rule="evenodd" d="M104.706 126.833H31.4128C31.4128 126.833 43.5058 141.062 68.5931 141.062C93.6804 141.062 104.706 126.833 104.706 126.833Z" fill="#FF85E2"/>
<path fill-rule="evenodd" clip-rule="evenodd" d="M57.6737 72.5002C57.6564 72.148 57.7879 71.8044 58.0336 71.5524C58.281 71.3006 58.6236 71.1629 58.9766 71.1729L59.3815 71.1843C59.9853 71.2012 60.4733 71.6815 60.4975 72.2836L61.3955 93.9076C61.4111 94.2628 61.2657 94.606 61.001 94.8437C60.7363 95.0814 60.3781 95.1885 60.0269 95.1362L59.9576 95.1258C59.2673 95.0228 58.7447 94.4476 58.7101 93.7513L57.6737 72.5002ZM64.0082 72.6932C64.003 72.2916 64.1605 71.9046 64.4425 71.6189C64.7263 71.333 65.1121 71.1724 65.5136 71.1724C65.8752 71.1724 66.2195 71.3159 66.4739 71.5714C66.7282 71.8267 66.8701 72.1729 66.8684 72.5329L66.7248 94.8945C66.723 95.2035 66.5881 95.4974 66.3562 95.7024C66.1244 95.9074 65.8164 96.0045 65.5084 95.9693L65.3059 95.9459C64.7142 95.8782 64.266 95.3816 64.2591 94.7871L64.0082 72.6932ZM70.1871 72.4108C70.1957 71.7239 70.7563 71.1724 71.445 71.1724C71.8983 71.1724 72.3326 71.3553 72.6492 71.6797C72.9642 72.004 73.1354 72.4422 73.1233 72.8946L72.5264 94.7653C72.5056 95.5124 71.8931 96.1075 71.1439 96.1075H71.092C70.7615 96.1075 70.4466 95.9757 70.2147 95.7414C69.9846 95.5072 69.8566 95.1902 69.8618 94.8615L70.1871 72.4108ZM76.705 72.1629C76.7535 71.507 77.302 70.9997 77.9612 70.9997H78.2C78.4993 70.9997 78.7848 71.1239 78.9873 71.3425C79.1897 71.5611 79.2918 71.8542 79.2676 72.1511L77.5719 93.9425C77.5165 94.6603 76.9178 95.2144 76.1963 95.2144H76.1081C75.8191 95.2144 75.5423 95.0942 75.345 94.8826C75.1495 94.6712 75.0491 94.3875 75.0716 94.0997L76.705 72.1629ZM82.479 70.7917C82.5395 70.2828 82.9704 69.8991 83.4843 69.8991C83.7559 69.8991 84.0154 70.014 84.1989 70.2154C84.3805 70.4168 84.4688 70.686 84.4428 70.9563L82.1935 93.4076C82.1173 94.1619 81.5083 94.7513 80.7504 94.8016L80.7487 94.8017C80.4788 94.8197 80.2158 94.7169 80.0289 94.5212C79.842 94.3253 79.752 94.0571 79.7849 93.7888L82.479 70.7917ZM53.6871 70.2854L56.3811 93.2823C56.4123 93.5508 56.3223 93.819 56.1355 94.0147C55.9503 94.2105 55.6856 94.3132 55.4157 94.2953C54.6578 94.2448 54.047 93.6554 53.9726 92.9013L51.7232 70.45C51.6956 70.1797 51.7855 69.9105 51.9672 69.7091C52.1489 69.5077 52.4084 69.3928 52.6818 69.3928C53.194 69.3928 53.6266 69.7765 53.6871 70.2854ZM87.7857 69.1491C87.8428 68.7211 88.1854 68.3877 88.6163 68.34C88.8741 68.3113 89.1319 68.4029 89.3136 68.5881C89.4953 68.7732 89.58 69.0316 89.5454 69.2885L86.4846 92.1879C86.4136 92.7301 85.9724 93.1491 85.4256 93.1956L85.4014 93.1977C85.1765 93.2169 84.955 93.1329 84.801 92.9697C84.6453 92.8064 84.5726 92.5815 84.602 92.3584L87.7857 69.1491ZM48.1831 68.9954L51.3651 92.2046C51.3962 92.4276 51.3235 92.6525 51.1678 92.8159C51.0121 92.9792 50.7906 93.063 50.5657 93.044L50.5415 93.0419C49.9947 92.9954 49.5552 92.5763 49.4825 92.0341L46.4217 69.1348C46.3871 68.8779 46.4736 68.6195 46.6553 68.4343C46.8369 68.2492 47.093 68.1576 47.3508 68.1861L47.3526 68.1863C47.7817 68.2339 48.1243 68.5673 48.1831 68.9954ZM92.4194 67.7741C92.4869 67.3283 92.8589 66.9918 93.3105 66.9699C93.5233 66.9595 93.731 67.0452 93.8729 67.2032C94.0165 67.3613 94.0805 67.575 94.0476 67.7854L90.5127 90.9148C90.4521 91.3116 90.1389 91.6223 89.741 91.6804C89.5126 91.7137 89.2807 91.6372 89.1181 91.4738C88.9554 91.3104 88.8793 91.0796 88.9139 90.8516L92.4194 67.7741ZM43.6757 67.4286L47.1813 90.5061C47.2159 90.7341 47.1397 90.9649 46.9771 91.1283C46.8144 91.2917 46.5826 91.3684 46.3542 91.3351C45.9562 91.277 45.643 90.9661 45.5825 90.5693L42.0475 67.4399C42.0146 67.2295 42.0787 67.0158 42.2223 66.8577C42.3642 66.6997 42.5701 66.614 42.7846 66.6244C43.2345 66.6463 43.6082 66.9828 43.6757 67.4286ZM46.4234 94.6349C46.0081 94.3623 45.8922 93.8038 46.1639 93.3884C46.4372 92.973 46.9961 92.8569 47.4131 93.1295C47.4131 93.1295 64.6208 104.332 89.1803 93.1991C89.6337 92.9937 90.1683 93.1942 90.3742 93.6466C90.5801 94.099 90.3794 94.633 89.9261 94.8384C64.3456 106.434 46.4234 94.6349 46.4234 94.6349Z" fill="#FAD1E3"/>
<path fill-rule="evenodd" clip-rule="evenodd" d="M92.5348 58.0901C92.033 59.4662 91.2007 60.9025 89.8356 62.2369C88.505 63.5393 86.6847 64.7374 84.2087 65.7011C80.5855 67.1121 75.5555 68.0203 68.5929 68.0175C57.5191 68.0132 51.4285 66.4042 49.4595 65.7709C50.0789 63.4348 51.0392 61.8809 52.3231 60.832C53.3665 59.9806 54.6088 59.4625 56.0155 59.106C56.5986 58.958 57.2111 58.8379 57.8479 58.7334C59.6941 58.4304 61.7462 58.2634 63.9558 57.9977C69.0601 57.038 74.0225 55.6238 78.1683 53.8722C80.0854 52.9779 81.9351 52.0122 83.6187 51.0742C86.3006 49.4506 89.2992 47.4199 90.6297 46.4702C90.6834 46.5386 90.9118 46.8333 90.962 46.915C91.8236 48.3132 93.1715 50.9757 93.2529 54.0417C93.2719 54.7606 93.2217 55.5018 93.0781 56.2541C92.9622 56.8626 92.7857 57.4764 92.5348 58.0901Z" fill="#FE86E4"/>
<path fill-rule="evenodd" clip-rule="evenodd" d="M92.6889 46.605C95.8933 47.6 99.7692 50.1701 99.8038 55.5383C99.8159 57.5801 98.7898 59.3622 97.4143 60.8279C95.2635 63.1239 92.2442 64.6568 90.6056 65.1418L90.6039 65.1424C89.6107 65.3947 88.7352 65.5968 87.7541 65.7889C87.6122 65.8169 87.4669 65.8445 87.3198 65.872C91.0313 63.6535 93.0591 61.1312 94.0541 58.6429C94.6493 57.0083 94.8344 55.4512 94.8638 54.1825C94.8725 53.8705 94.8708 53.5762 94.8621 53.3022C94.7877 50.4817 93.6509 48.1157 92.6889 46.605Z" fill="#FE86E4"/>
<path fill-rule="evenodd" clip-rule="evenodd" d="M57.5866 57.1435C56.955 57.247 51.9597 57.9635 49.8972 60.8674C48.6393 62.6372 48.0008 64.6115 47.7621 65.5622C46.1512 65.0119 42.6526 63.6687 39.7128 61.5164C37.4479 59.8591 35.4926 57.726 35.1587 55.0539C34.9372 53.2916 35.439 51.3129 36.9703 49.0989C36.9755 49.0918 36.979 49.0846 36.9842 49.0773C36.9842 49.0773 39.2301 45.5194 42.7425 46.1663C43.5558 46.3163 44.3759 46.455 45.1995 46.5819C45.902 46.7524 46.7308 46.9602 47.6738 47.1708C53.4599 48.4636 63.2429 49.8315 75.1334 45.3901C82.8331 42.5143 87.6519 37.2968 88.0118 36.3027L88.0188 36.3071C90.436 35.4445 92.8514 42.5347 90.0951 45.2284C88.9929 46.305 86.0116 47.9241 82.5372 49.8451C81.0388 50.6729 79.4175 51.5167 77.7392 52.3061C74.6627 53.7535 71.3994 55.0174 68.3697 55.6612C66.7484 56.0058 65.1843 56.2311 63.6928 56.4104C61.4832 56.6761 59.4311 56.8409 57.5866 57.1435Z" fill="#FE86E4"/>
<path fill-rule="evenodd" clip-rule="evenodd" d="M65.9526 46.2792C61.9747 46.9555 58.3636 46.9869 55.2353 46.7309C52.4097 46.5 49.9787 46.0346 48.0252 45.5983C46.9836 45.3653 46.0683 45.144 45.2931 44.9664C44.6685 44.8229 44.1338 44.7082 43.696 44.6391C43.7133 43.2482 43.895 40.0415 45.1132 37.3622C46.1081 35.176 47.8262 33.3403 50.8525 33.3847C51.7574 33.398 52.6554 33.4462 53.5431 33.5184C55.981 33.8839 59.7756 34.7666 63.333 35.1749C66.6984 35.5612 69.8596 35.4926 71.6678 34.3928C71.775 34.3273 71.8823 34.2625 71.9879 34.1985C72.0951 34.1463 72.199 34.0915 72.3028 34.0344C73.5624 33.3375 74.7182 32.6316 75.7979 31.9701C76.7063 31.4136 77.5611 30.8888 78.3795 30.4276C79.3952 29.8546 80.3486 29.3791 81.2777 29.0828C81.8678 28.8949 82.4613 28.8818 83.0322 28.7564C86.3388 28.0281 87.3199 33.5324 86.6087 35.4857C86.3405 36.2264 85.2176 37.0545 83.9649 38.1566C81.8435 40.0202 78.6771 42.2819 74.5469 43.8887C71.538 45.0595 68.6605 45.8187 65.9526 46.2792Z" fill="#FE86E4"/>
<path fill-rule="evenodd" clip-rule="evenodd" d="M53.4237 31.894C53.0136 31.8353 52.6416 31.7912 52.3181 31.7665C52.1329 30.6081 51.9322 27.9817 53.4047 26.0439C54.2231 24.9683 55.5744 24.1355 57.7269 23.8727C60.1424 23.5781 61.556 24.3189 62.9247 24.9555C64.565 25.7174 66.1499 26.359 68.8145 25.5987C71.3477 24.8762 72.8668 23.6069 74.0677 22.7201C74.8878 22.1141 75.4744 21.6589 76.3499 22.2424C77.504 23.0099 78.7377 23.8391 79.5596 24.862C80.1998 25.6582 80.5649 26.5815 80.3365 27.7065C80.333 27.7224 80.3296 27.7383 80.3261 27.7542C79.6201 28.0991 77.7982 28.9929 75.0349 30.5494C73.95 31.2139 72.7873 31.9237 71.5207 32.6243C71.4203 32.6805 71.3165 32.7335 71.2127 32.7834C71.0847 32.8601 70.9566 32.9377 70.8286 33.0163C69.2436 33.9796 66.4648 33.9119 63.5182 33.5737C59.8396 33.1515 55.9118 32.2507 53.4237 31.894Z" fill="#FE86E4"/>
<path fill-rule="evenodd" clip-rule="evenodd" d="M18.2514 127.6C18.0295 127.569 17.7284 127.579 17.4408 127.708C16.0528 128.329 16.4966 130.075 18.6296 131.27C23.4502 133.972 28.5064 131.527 29.0566 128.647C29.086 128.5 29.0702 128.484 29.1879 128.391C29.1902 128.39 29.4347 128.321 29.437 128.322C29.5094 128.363 29.6045 128.381 29.6566 128.447C29.7653 128.585 29.7359 128.601 29.72 128.776C29.3691 132.325 23.6563 135.641 17.7556 133.027C13.2134 131.015 13.3651 126.707 16.5012 125.182C17.9684 124.469 20.432 124.617 21.1882 126.432C21.5007 127.184 21.358 127.891 21.3037 128.136C21.1724 128.741 20.6787 129.034 20.5972 129.082C20.4274 129.183 20.2372 129.253 20.0425 129.281C19.404 129.375 18.9647 129.045 18.8877 128.988C18.3896 128.613 18.3103 128.085 18.2967 127.994C18.2673 127.788 18.2333 127.707 18.2514 127.6Z" fill="#B636BC"/>
<path fill-rule="evenodd" clip-rule="evenodd" d="M120.153 127.6C120.169 127.707 120.135 127.788 120.105 127.993C120.092 128.085 120.013 128.612 119.514 128.987C119.437 129.044 118.998 129.374 118.36 129.281C117.742 129.19 117.42 128.765 117.363 128.691C117.137 128.389 117.141 128.38 117.071 128.009C116.707 126.038 118.249 124.533 120.624 124.818C123.135 125.119 124.969 127.627 123.817 130.176C122.698 132.645 119.422 133.707 117.311 133.915C112.713 134.37 108.963 131.609 108.682 128.776C108.666 128.6 108.637 128.585 108.746 128.447C108.748 128.444 108.967 128.321 108.97 128.321C109.051 128.344 109.149 128.338 109.214 128.391C109.359 128.505 109.321 128.533 109.359 128.714C109.928 131.489 114.925 133.986 119.773 131.27C121.996 130.024 122.333 128.224 120.871 127.669C120.642 127.582 120.364 127.573 120.153 127.6Z" fill="#B636BC"/>
<path fill-rule="evenodd" clip-rule="evenodd" d="M37.2452 85.9329C37.2989 86.212 37.1164 86.4819 36.8364 86.5355L29.6753 87.908C29.3952 87.9617 29.1256 87.7784 29.0719 87.4993C29.0182 87.2202 29.2007 86.9503 29.4807 86.8967L36.6418 85.5242C36.9219 85.4705 37.1915 85.6537 37.2452 85.9329Z" fill="#FAD1E3"/>
<path fill-rule="evenodd" clip-rule="evenodd" d="M98.1149 84.842C98.0612 85.1212 98.2437 85.391 98.5237 85.4447L105.685 86.8172C105.965 86.8709 106.235 86.6876 106.288 86.4085C106.342 86.1294 106.159 85.8595 105.879 85.8058L98.7183 84.4334C98.4383 84.3797 98.1686 84.5629 98.1149 84.842Z" fill="#FAD1E3"/>
<path fill-rule="evenodd" clip-rule="evenodd" d="M34.843 81.9573C34.8983 82.2361 34.7175 82.5071 34.4378 82.5624L27.2849 83.9771C27.0052 84.0324 26.7345 83.8508 26.6791 83.572C26.6238 83.2932 26.8046 83.0222 27.0844 82.9669L34.2372 81.5522C34.5169 81.4969 34.7876 81.6785 34.843 81.9573Z" fill="#FAD1E3"/>
<path fill-rule="evenodd" clip-rule="evenodd" d="M100.518 80.867C100.463 81.1458 100.644 81.4167 100.924 81.4721L108.076 82.8868C108.356 82.9421 108.627 82.7605 108.682 82.4817C108.738 82.2029 108.557 81.9319 108.277 81.8766L101.124 80.4619C100.844 80.4065 100.574 80.5882 100.518 80.867Z" fill="#FAD1E3"/>
<path fill-rule="evenodd" clip-rule="evenodd" d="M33.1523 77.9268C33.1959 78.2076 33.0039 78.4708 32.7221 78.5144L25.5162 79.6297C25.2344 79.6733 24.9716 79.4806 24.9279 79.1997C24.8843 78.9189 25.0763 78.6557 25.3581 78.6121L32.564 77.4968C32.8458 77.4532 33.1087 77.6459 33.1523 77.9268Z" fill="#FAD1E3"/>
<path fill-rule="evenodd" clip-rule="evenodd" d="M102.209 76.8359C102.165 77.1168 102.357 77.3799 102.639 77.4236L109.845 78.5389C110.127 78.5825 110.39 78.3897 110.433 78.1089C110.477 77.828 110.285 77.5649 110.003 77.5213L102.797 76.406C102.515 76.3623 102.252 76.5551 102.209 76.8359Z" fill="#FAD1E3"/>
<path fill-rule="evenodd" clip-rule="evenodd" d="M32.243 73.9053C32.2735 74.1879 32.0694 74.4418 31.7859 74.4723L24.5357 75.2518C24.2522 75.2823 23.9986 75.0776 23.9681 74.7951C23.9376 74.5125 24.1417 74.2586 24.4252 74.2281L31.6754 73.4486C31.9589 73.4181 32.2125 73.6228 32.243 73.9053Z" fill="#FAD1E3"/>
<path fill-rule="evenodd" clip-rule="evenodd" d="M103.118 72.815C103.087 73.0975 103.291 73.3515 103.575 73.382L110.825 74.1615C111.109 74.192 111.362 73.9873 111.393 73.7047C111.423 73.4222 111.219 73.1683 110.936 73.1378L103.685 72.3583C103.402 72.3278 103.148 72.5325 103.118 72.815Z" fill="#FAD1E3"/>
<path fill-rule="evenodd" clip-rule="evenodd" d="M31.6852 69.7218C31.7067 70.0052 31.4947 70.2525 31.2104 70.2741L23.9392 70.8255C23.6549 70.847 23.4078 70.6345 23.3862 70.3512C23.3647 70.0678 23.5767 69.8205 23.861 69.7989L31.1322 69.2475C31.4166 69.226 31.6636 69.4385 31.6852 69.7218Z" fill="#FAD1E3"/>
<path fill-rule="evenodd" clip-rule="evenodd" d="M28.191 63.8308C28.191 64.1148 27.9603 64.3452 27.6759 64.3452H25.2875C25.0032 64.3452 24.7725 64.1148 24.7725 63.8308C24.7725 63.5469 25.0032 63.3164 25.2875 63.3164H27.6759C27.9603 63.3164 28.191 63.5469 28.191 63.8308Z" fill="#FAD1E3"/>
<path fill-rule="evenodd" clip-rule="evenodd" d="M106.467 62.1038C106.467 62.3877 106.698 62.6182 106.982 62.6182H109.37C109.655 62.6182 109.885 62.3877 109.885 62.1038C109.885 61.8198 109.655 61.5894 109.37 61.5894H106.982C106.698 61.5894 106.467 61.8198 106.467 62.1038Z" fill="#FAD1E3"/>
<path fill-rule="evenodd" clip-rule="evenodd" d="M28.5718 56.9629C28.5302 57.2439 28.2682 57.4385 27.9869 57.3971L25.6242 57.0494C25.343 57.008 25.1485 56.7463 25.19 56.4652C25.2316 56.1842 25.4936 55.9896 25.7749 56.031L28.1376 56.3787C28.4188 56.4201 28.6133 56.6818 28.5718 56.9629Z" fill="#FAD1E3"/>
<path fill-rule="evenodd" clip-rule="evenodd" d="M106.086 55.2353C106.128 55.5164 106.39 55.7109 106.671 55.6695L109.034 55.3218C109.315 55.2805 109.509 55.0187 109.468 54.7377C109.426 54.4566 109.164 54.2621 108.883 54.3035L106.52 54.6512C106.239 54.6926 106.045 54.9543 106.086 55.2353Z" fill="#FAD1E3"/>
<path fill-rule="evenodd" clip-rule="evenodd" d="M30.3983 49.6998C30.3343 49.9766 30.0575 50.1496 29.7805 50.0858L27.4534 49.5503C27.1764 49.4865 27.0036 49.2101 27.0676 48.9332C27.1316 48.6564 27.4084 48.4834 27.6854 48.5471L30.0125 49.0827C30.2895 49.1465 30.4624 49.4229 30.3983 49.6998Z" fill="#FAD1E3"/>
<path fill-rule="evenodd" clip-rule="evenodd" d="M104.26 47.9722C104.324 48.2491 104.601 48.4221 104.878 48.3583L107.205 47.8228C107.482 47.759 107.655 47.4825 107.591 47.2057C107.527 46.9288 107.25 46.7558 106.973 46.8196L104.646 47.3552C104.369 47.4189 104.196 47.6954 104.26 47.9722Z" fill="#FAD1E3"/>
<path fill-rule="evenodd" clip-rule="evenodd" d="M33.5457 42.7323C33.4373 42.995 33.136 43.1206 32.8731 43.0125L30.665 42.1047C30.4021 41.9967 30.2769 41.6957 30.3853 41.433C30.4938 41.1703 30.7951 41.0447 31.058 41.1528L33.266 42.0606C33.5289 42.1686 33.6542 42.4696 33.5457 42.7323Z" fill="#FAD1E3"/>
<path fill-rule="evenodd" clip-rule="evenodd" d="M101.112 41.0048C101.22 41.2675 101.522 41.393 101.784 41.285L103.992 40.3772C104.255 40.2691 104.381 39.9682 104.272 39.7055C104.164 39.4427 103.862 39.3172 103.599 39.4253L101.391 40.333C101.129 40.4411 101.003 40.742 101.112 41.0048Z" fill="#FAD1E3"/>
<path fill-rule="evenodd" clip-rule="evenodd" d="M38.3324 36.0504C38.1705 36.2841 37.8494 36.3427 37.6156 36.1812L35.6515 34.825C35.4177 34.6636 35.3593 34.3429 35.5212 34.1093C35.6831 33.8757 36.0042 33.817 36.238 33.9785L38.2021 35.3347C38.4359 35.4962 38.4943 35.8168 38.3324 36.0504Z" fill="#FAD1E3"/>
<path fill-rule="evenodd" clip-rule="evenodd" d="M96.3251 34.3229C96.487 34.5565 96.8081 34.6151 97.0419 34.4537L99.006 33.0975C99.2398 32.936 99.2982 32.6154 99.1363 32.3817C98.9744 32.1481 98.6533 32.0895 98.4195 32.251L96.4554 33.6072C96.2216 33.7686 96.1632 34.0893 96.3251 34.3229Z" fill="#FAD1E3"/>
<path fill-rule="evenodd" clip-rule="evenodd" d="M44.9012 30.5434C44.6798 30.7216 44.3553 30.687 44.1768 30.466L42.6772 28.6099C42.4986 28.3889 42.5334 28.065 42.7548 27.8868C42.9761 27.7086 43.3006 27.7433 43.4792 27.9642L44.9787 29.8203C45.1573 30.0413 45.1225 30.3652 44.9012 30.5434Z" fill="#FAD1E3"/>
<path fill-rule="evenodd" clip-rule="evenodd" d="M89.7561 28.8164C89.9774 28.9946 90.3019 28.9599 90.4805 28.7389L91.9801 26.8829C92.1586 26.6619 92.1238 26.338 91.9025 26.1598C91.6811 25.9816 91.3566 26.0162 91.1781 26.2372L89.6785 28.0933C89.4999 28.3142 89.5347 28.6382 89.7561 28.8164Z" fill="#FAD1E3"/>
<path fill-rule="evenodd" clip-rule="evenodd" d="M50.9124 25.1149C50.6678 25.2597 50.3515 25.1791 50.2064 24.9349L49.962 24.5237C49.8168 24.2795 49.8975 23.9638 50.142 23.819C50.3865 23.6742 50.7028 23.7548 50.848 23.999L51.0923 24.4102C51.2375 24.6544 51.1569 24.9701 50.9124 25.1149Z" fill="#FAD1E3"/>
<path fill-rule="evenodd" clip-rule="evenodd" d="M83.7468 23.3874C83.9913 23.5322 84.3076 23.4515 84.4528 23.2073L84.6972 22.7962C84.8424 22.552 84.7617 22.2363 84.5172 22.0914C84.2727 21.9466 83.9564 22.0273 83.8112 22.2715L83.5668 22.6826C83.4217 22.9268 83.5023 23.2426 83.7468 23.3874Z" fill="#FAD1E3"/>
<path fill-rule="evenodd" clip-rule="evenodd" d="M103.676 68.631C103.655 68.9143 103.867 69.1617 104.151 69.1833L111.422 69.7346C111.706 69.7562 111.954 69.5436 111.975 69.2603C111.997 68.977 111.785 68.7297 111.5 68.7081L104.229 68.1567C103.945 68.1352 103.698 68.3477 103.676 68.631Z" fill="#FAD1E3"/>
<path fill-rule="evenodd" clip-rule="evenodd" d="M54.8421 133.352L54.689 134.844C54.675 134.981 54.6209 135.093 54.5269 135.179C54.4334 135.26 54.3182 135.293 54.1811 135.279C54.0494 135.266 53.946 135.21 53.8708 135.112C53.7962 135.009 53.766 134.888 53.78 134.752L54.2481 130.188C54.2622 130.052 54.3186 129.943 54.4173 129.863C54.5219 129.778 54.6427 129.742 54.7797 129.756L56.5819 129.94C56.8559 129.968 57.1034 130.073 57.3243 130.255C57.5505 130.437 57.7236 130.671 57.8436 130.954C57.9636 131.238 58.0066 131.545 57.9726 131.877C57.9391 132.203 57.8349 132.493 57.6598 132.746C57.4847 133 57.2676 133.195 57.0084 133.334C56.7551 133.468 56.4914 133.52 56.2174 133.492L54.8421 133.352ZM54.9344 132.452L56.3097 132.592C56.4099 132.603 56.5117 132.571 56.6152 132.496C56.7187 132.421 56.8088 132.322 56.8855 132.196C56.9628 132.066 57.009 131.927 57.0241 131.78C57.0397 131.627 57.0227 131.482 56.973 131.344C56.9232 131.206 56.855 131.093 56.7682 131.004C56.682 130.91 56.5889 130.858 56.4887 130.848L55.1134 130.707L54.9344 132.452ZM60.8985 134.783L60.4127 135.717C60.3678 135.814 60.3036 135.889 60.2197 135.941C60.1417 135.988 60.0577 136.008 59.9683 136.001C59.8256 135.99 59.723 135.942 59.6605 135.858C59.5979 135.773 59.5712 135.673 59.5802 135.557C59.584 135.509 59.5958 135.46 59.6157 135.408L61.9567 130.829C62.0072 130.727 62.0766 130.65 62.1658 130.599C62.2602 130.548 62.3571 130.531 62.4567 130.55C62.5514 130.557 62.6366 130.593 62.7113 130.657C62.7917 130.716 62.8462 130.798 62.8756 130.901L64.4634 135.688C64.4845 135.758 64.4925 135.823 64.4882 135.881C64.477 136.023 64.4208 136.133 64.319 136.21C64.2229 136.287 64.1192 136.322 64.0083 136.313C63.9132 136.306 63.8283 136.27 63.7537 136.206C63.684 136.142 63.6324 136.059 63.5977 135.955L63.2609 134.966L60.8985 134.783ZM62.9407 134.026L62.2894 132.113L61.3569 133.903L62.9407 134.026ZM68.5183 134.421L68.5181 135.961C68.518 136.099 68.4811 136.215 68.4067 136.31C68.3326 136.4 68.2295 136.445 68.097 136.445C67.9486 136.445 67.8161 136.4 67.6996 136.31C67.5832 136.215 67.5249 136.099 67.525 135.961L67.5257 131.374C67.5258 131.237 67.5708 131.123 67.6609 131.033C67.7562 130.938 67.8729 130.89 68.0103 130.89L70.2986 130.89C70.5742 130.89 70.8312 130.964 71.0696 131.112C71.3132 131.255 71.5092 131.456 71.6573 131.715C71.8057 131.969 71.8797 132.262 71.8798 132.596C71.8798 132.797 71.8374 132.993 71.7526 133.183C71.6729 133.373 71.5617 133.546 71.4185 133.699C71.3242 133.804 71.2209 133.893 71.1089 133.966C71.1912 134.024 71.2624 134.088 71.3234 134.159C71.424 134.265 71.5006 134.381 71.5535 134.508C71.6119 134.63 71.6462 134.762 71.6569 134.905C71.6779 135.037 71.6913 135.154 71.6966 135.254C71.7072 135.355 71.7229 135.439 71.7441 135.508C71.7706 135.577 71.8184 135.63 71.8872 135.667C72.0036 135.736 72.0752 135.836 72.1016 135.968C72.1334 136.096 72.1041 136.209 72.0143 136.31C71.956 136.379 71.8818 136.424 71.7918 136.445C71.7016 136.461 71.6115 136.46 71.5216 136.445C71.4315 136.423 71.3574 136.397 71.2991 136.365C71.209 136.312 71.119 136.236 71.0288 136.135C70.9388 136.03 70.8647 135.889 70.8064 135.715C70.7537 135.54 70.7272 135.315 70.7272 135.04C70.7271 134.95 70.7112 134.868 70.6795 134.794C70.6477 134.715 70.6029 134.649 70.5444 134.596C70.4862 134.537 70.412 134.495 70.3222 134.469C70.2319 134.437 70.1261 134.421 70.0043 134.421L68.5183 134.421ZM68.5186 133.604L70.2585 133.604C70.354 133.604 70.4466 133.562 70.5368 133.477C70.6269 133.387 70.701 133.268 70.7594 133.12C70.8175 132.966 70.8469 132.8 70.8467 132.62C70.8469 132.387 70.7832 132.194 70.6562 132.041C70.5343 131.882 70.4021 131.802 70.259 131.802L68.5187 131.803L68.5186 133.604ZM75.7053 135.68C75.7052 135.817 75.655 135.934 75.5543 136.029C75.4536 136.119 75.3372 136.164 75.2047 136.164C75.0563 136.164 74.9371 136.119 74.8472 136.029C74.7571 135.934 74.7121 135.818 74.7123 135.68L74.7129 131.093C74.7131 130.956 74.7607 130.842 74.8561 130.752C74.9514 130.657 75.0731 130.609 75.2215 130.609C75.3486 130.609 75.4599 130.657 75.5553 130.752C75.6559 130.842 75.7061 130.956 75.706 131.093L75.7053 135.68ZM80.4932 135.447C80.1247 135.489 79.7882 135.483 79.4831 135.428C79.1774 135.368 78.877 135.238 78.5816 135.038C78.5066 134.988 78.4464 134.928 78.401 134.859C78.3555 134.79 78.3285 134.719 78.3198 134.645C78.3059 134.524 78.3358 134.414 78.4095 134.315C78.4879 134.21 78.5929 134.149 78.7246 134.134C78.8246 134.123 78.9176 134.144 79.004 134.198C79.2229 134.337 79.4346 134.438 79.6389 134.499C79.8487 134.56 80.0982 134.574 80.3875 134.54C80.5822 134.517 80.7577 134.467 80.9144 134.391C81.0699 134.309 81.1919 134.212 81.2802 134.101C81.3681 133.984 81.4045 133.86 81.389 133.728C81.3709 133.571 81.3078 133.442 81.2002 133.343C81.0926 133.243 80.9372 133.168 80.7341 133.117C80.5302 133.061 80.2759 133.029 79.9712 133.022C79.6819 133.013 79.4248 132.98 79.1992 132.921C78.9732 132.856 78.7786 132.767 78.616 132.653C78.4582 132.533 78.332 132.388 78.2373 132.218C78.1425 132.042 78.0815 131.842 78.0555 131.616C78.0156 131.274 78.0685 130.973 78.2139 130.71C78.3646 130.448 78.5827 130.236 78.8681 130.075C79.1532 129.914 79.4775 129.812 79.8405 129.77C80.1824 129.73 80.5043 129.746 80.8058 129.817C81.1122 129.883 81.3664 129.984 81.5691 130.12C81.7356 130.223 81.8284 130.354 81.8465 130.511C81.8599 130.627 81.8276 130.737 81.749 130.842C81.6706 130.947 81.571 131.007 81.4501 131.021C81.3709 131.03 81.2973 131.015 81.2285 130.975C81.1359 130.911 81.0148 130.856 80.8654 130.809C80.7153 130.758 80.5588 130.72 80.3962 130.696C80.2327 130.667 80.0826 130.661 79.9459 130.676C79.7196 130.703 79.5309 130.754 79.38 130.83C79.2341 130.906 79.1275 130.998 79.0601 131.107C78.993 131.216 78.9667 131.336 78.9821 131.468C79.0006 131.626 79.0605 131.752 79.1623 131.846C79.2683 131.935 79.412 132.001 79.593 132.044C79.7735 132.081 79.9875 132.11 80.2349 132.129C80.5575 132.15 80.8417 132.186 81.0877 132.237C81.3387 132.288 81.5506 132.367 81.7232 132.475C81.8951 132.577 82.0317 132.719 82.1323 132.899C82.2329 133.074 82.2987 133.295 82.3298 133.563C82.3696 133.904 82.309 134.21 82.1483 134.479C81.9876 134.748 81.7598 134.966 81.4648 135.133C81.1748 135.3 80.8509 135.405 80.4932 135.447Z" fill="#25026A"/>
<path fill-rule="evenodd" clip-rule="evenodd" d="M97.3519 130.049C97.3519 130.212 97.219 130.345 97.0553 130.345H86.4709C86.3072 130.345 86.1743 130.212 86.1743 130.049C86.1743 129.885 86.3072 129.752 86.4709 129.752H97.0553C97.219 129.752 97.3519 129.885 97.3519 130.049ZM94.4665 132.541C94.4665 132.704 94.3338 132.837 94.1701 132.837H83.5856C83.4219 132.837 83.2891 132.704 83.2891 132.541C83.2891 132.378 83.4219 132.245 83.5856 132.245H94.1701C94.3338 132.245 94.4665 132.378 94.4665 132.541ZM86.7026 135.098C86.7026 135.261 86.5697 135.394 86.4062 135.394H85.9425C85.7789 135.394 85.6461 135.261 85.6461 135.098C85.6461 134.934 85.7789 134.802 85.9425 134.802H86.4062C86.5697 134.802 86.7026 134.934 86.7026 135.098ZM88.5683 135.098C88.5683 135.261 88.4354 135.394 88.2717 135.394H87.8082C87.6445 135.394 87.5116 135.261 87.5116 135.098C87.5116 134.934 87.6445 134.802 87.8082 134.802H88.2717C88.4354 134.802 88.5683 134.934 88.5683 135.098Z" fill="#25026A"/>
<path fill-rule="evenodd" clip-rule="evenodd" d="M38.7262 130.049C38.7262 130.212 38.8591 130.345 39.0228 130.345H49.6073C49.7709 130.345 49.9038 130.212 49.9038 130.049C49.9038 129.885 49.7709 129.752 49.6073 129.752H39.0228C38.8591 129.752 38.7262 129.885 38.7262 130.049ZM41.6116 132.541C41.6116 132.704 41.7443 132.837 41.908 132.837H52.4925C52.6562 132.837 52.7891 132.704 52.7891 132.541C52.7891 132.378 52.6562 132.245 52.4925 132.245H41.908C41.7443 132.245 41.6116 132.378 41.6116 132.541ZM49.3756 135.098C49.3756 135.261 49.5084 135.394 49.672 135.394H50.1357C50.2992 135.394 50.4321 135.261 50.4321 135.098C50.4321 134.934 50.2992 134.802 50.1357 134.802H49.672C49.5084 134.802 49.3756 134.934 49.3756 135.098ZM47.5098 135.098C47.5098 135.261 47.6427 135.394 47.8064 135.394H48.2699C48.4336 135.394 48.5665 135.261 48.5665 135.098C48.5665 134.934 48.4336 134.802 48.2699 134.802H47.8064C47.6427 134.802 47.5098 134.934 47.5098 135.098Z" fill="#25026A"/>
<path fill-rule="evenodd" clip-rule="evenodd" d="M61.1113 33.2426C58.2062 32.7871 55.372 32.1736 53.4237 31.8941C53.0136 31.8353 52.6416 31.7913 52.3181 31.7666C52.1329 30.6082 51.9322 27.9817 53.4047 26.0439C54.2231 24.9683 55.5744 24.1355 57.7269 23.8728C59.4987 23.6567 60.7307 23.9973 61.8017 24.4454C62.9333 25.4179 63.1721 26.5765 66.47 26.231C72.0588 25.646 62.8779 28.6063 61.2238 28.4925C59.5697 28.3787 60.2531 30.4875 67.4563 29.7286C69.4755 29.5158 63.4489 32.1931 61.1096 31.3961C58.772 30.599 58.8862 32.0792 60.5974 32.8194C60.9366 32.9662 61.0871 33.1088 61.1113 33.2426Z" fill="white"/>
<path fill-rule="evenodd" clip-rule="evenodd" d="M53.1693 46.5149C51.2107 46.2663 49.4856 45.9241 48.0252 45.5982C46.9836 45.3652 46.0683 45.1439 45.2931 44.9663C44.6685 44.8228 44.1338 44.7081 43.696 44.639C43.7133 43.2481 43.895 40.0414 45.1132 37.362C46.1081 35.1759 47.8262 33.3402 50.8525 33.3846C51.7574 33.3979 52.6554 33.4461 53.5431 33.5183C55.981 33.8838 59.7756 34.7665 63.333 35.1748C65.3522 35.4065 67.2971 35.4745 68.9218 35.2545C66.8939 36.2106 63.1565 37.5635 58.746 37.2247C52.0741 36.7124 52.7022 41.6085 57.4345 41.6085C62.1685 41.6085 58.175 44.9105 52.7575 43.772C48.1948 42.813 51.0359 45.4942 53.1693 46.5149Z" fill="white"/>
<path fill-rule="evenodd" clip-rule="evenodd" d="M49.4577 61.5331C48.4871 63.1113 47.9714 64.7291 47.7621 65.5619C46.1512 65.0116 42.6526 63.6684 39.7128 61.516C37.4479 59.8588 35.4926 57.7256 35.1587 55.0536C34.9372 53.2913 35.439 51.3126 36.9703 49.0986C36.9755 49.0915 36.979 49.0843 36.9842 49.077C36.9842 49.077 39.2301 45.5191 42.7425 46.166C43.5558 46.316 44.3759 46.4547 45.1995 46.5816C45.902 46.7521 46.7308 46.9599 47.6738 47.1705C51.5566 48.038 57.2388 48.9393 64.1496 48.0964C63.0335 49.0077 60.9866 50.0436 57.635 49.709C51.9338 49.1399 48.2967 52.7693 53.3595 53.4098C58.4206 54.0503 45.8345 53.3813 43.6959 55.9432C41.5573 58.5052 50.0789 56.3275 49.937 59.1031C49.9007 59.8035 49.7156 60.6536 49.4577 61.5331Z" fill="white"/>
<path fill-rule="evenodd" clip-rule="evenodd" d="M54.3735 66.9274C51.9234 66.4985 50.309 66.044 49.4595 65.7711C50.0789 63.435 51.0392 61.881 52.3231 60.8322C53.3665 59.9808 54.6088 59.4627 56.0155 59.1062C56.5986 58.9581 57.2111 58.8381 57.8479 58.7336C59.6941 58.4306 61.7462 58.2636 63.9558 57.9979C69.0601 57.0382 74.0225 55.624 78.1683 53.8724C79.1251 53.4259 80.0664 52.9615 80.9765 52.4917C77.2426 54.7506 72.5345 58.3739 70.2782 59.0407C60.5852 61.9044 58.8757 60.2174 53.5118 63.7402C50.4181 65.7723 51.605 65.8718 54.3735 66.9274Z" fill="white"/>
<path fill-rule="evenodd" clip-rule="evenodd" d="M69.825 33.452C72.2646 32.1017 75.8048 29.8905 77.9625 28.1959C78.9574 27.4144 77.9521 26.1289 77.3136 23.8061C76.9226 22.3831 75.4363 22.4102 75.547 21.9723C75.7962 21.968 76.0574 22.047 76.3499 22.2425C77.5039 23.01 78.7376 23.8391 79.5595 24.8621C80.1997 25.6582 80.5544 26.5034 80.4004 27.6412C80.3883 27.7416 80.3416 27.7471 80.326 27.7542C79.6201 28.0992 77.7981 28.9929 75.0348 30.5495C73.95 31.214 72.7872 31.9238 71.5206 32.6244C71.4203 32.6805 71.3165 32.7336 71.2126 32.7835C71.0846 32.8602 70.9566 32.9377 70.8285 33.0163C70.5326 33.1956 70.197 33.3392 69.825 33.452Z" fill="#B636BC"/>
<path fill-rule="evenodd" clip-rule="evenodd" d="M76.6128 20.3397C76.6128 20.3397 75.5487 25.1296 70.2246 26.0481C64.8988 26.9668 54.2143 24.6053 58.1368 14.9778C62.0611 5.35071 73.0467 9.03417 75.1887 11.8676C77.9537 15.5244 76.6128 20.3397 76.6128 20.3397Z" fill="#DF1F2E"/>
<path fill-rule="evenodd" clip-rule="evenodd" d="M77.3966 20.5319V20.5362C77.3084 20.9074 76.0228 25.8653 70.3613 26.842C68.0029 27.2488 64.6479 27.0464 61.8552 25.9217C59.9104 25.1378 58.2407 23.9076 57.3011 22.1711C56.2958 20.3133 56.0951 17.8532 57.3894 14.6741C60.3499 7.4114 67.0271 7.14752 71.5656 8.70852C73.5571 9.39305 75.1248 10.4446 75.8325 11.3821C78.7116 15.1883 77.497 20.1509 77.3966 20.5319ZM75.8359 20.1239C75.8359 20.1239 77.08 15.7061 74.5451 12.3528C73.9689 11.5904 72.6591 10.7889 71.0396 10.2322C67.1551 8.89628 61.4192 9.0661 58.8861 15.2814C57.8272 17.8789 57.8998 19.8872 58.7217 21.4052C59.4865 22.82 60.8742 23.7887 62.4591 24.4272C64.9628 25.4358 67.9718 25.6188 70.0862 25.2542C74.8531 24.4317 75.8255 20.165 75.8255 20.165C75.829 20.1513 75.8324 20.1375 75.8359 20.1239Z" fill="#25026A"/>
<path fill-rule="evenodd" clip-rule="evenodd" d="M69.6693 12.2665C69.6849 12.5204 69.5949 12.7695 69.4202 12.9535C69.2437 13.1376 68.998 13.2393 68.7436 13.2343C68.6675 13.2371 68.5896 13.2355 68.5135 13.234C67.9667 13.2231 67.4995 12.837 67.3871 12.3029C67.0012 10.1228 66.8784 4.54613 74.701 0.967347C75.2097 0.730351 75.8032 0.755051 76.2911 1.03385C76.779 1.31265 77.1009 1.81065 77.1545 2.36929C77.1614 2.41558 77.1649 2.4598 77.1701 2.5016C77.1926 2.73497 77.0594 2.95556 76.8431 3.04608C75.2858 3.73288 69.2904 6.74785 69.6693 12.2665Z" fill="#F9FAF4"/>
<path fill-rule="evenodd" clip-rule="evenodd" d="M70.4739 12.213C70.5068 12.6922 70.3355 13.1628 70.0033 13.51C69.6762 13.852 69.2229 14.0437 68.754 14.0403C68.6692 14.0427 68.5827 14.0415 68.4979 14.0398C67.5757 14.0213 66.7884 13.3702 66.5981 12.469C66.5964 12.4604 66.5946 12.4518 66.5929 12.443C66.3403 11.0196 66.1915 8.26581 67.9512 5.44932C69.0931 3.62158 71.0484 1.75221 74.3619 0.235745C75.1093 -0.110422 75.9779 -0.0736291 76.6925 0.334723C77.402 0.739967 77.8708 1.46098 77.9556 2.26801C77.9626 2.32276 77.9678 2.37528 77.973 2.42537L77.9453 2.85342L77.7878 3.24173L77.5196 3.56268C77.5196 3.56268 77.1545 3.78948 77.1684 3.78326C76.4313 4.1087 74.6404 4.98448 73.0797 6.43427C71.5951 7.81307 70.3043 9.72424 70.4739 12.2117V12.213ZM68.863 12.3217V12.3201C68.6554 9.28963 70.1711 6.93452 71.9793 5.25465C73.6005 3.74975 75.4415 2.79952 76.343 2.3872C76.2998 2.11306 76.1337 1.87226 75.8897 1.73338C75.6301 1.58466 75.3135 1.57136 75.0418 1.6978C75.0401 1.69866 75.0384 1.69935 75.0367 1.70005C72.0934 3.04654 70.3355 4.67908 69.3216 6.30213C67.8543 8.65154 67.9702 10.9488 68.1796 12.1484C68.2193 12.3098 68.363 12.4252 68.5308 12.4286C68.5914 12.4298 68.6519 12.4314 68.7142 12.4291C68.7298 12.4286 68.7436 12.4285 68.7592 12.4288C68.7886 12.4293 68.8163 12.4179 68.8353 12.3974C68.8544 12.377 68.8648 12.3497 68.863 12.3217Z" fill="#25026A"/>
<path fill-rule="evenodd" clip-rule="evenodd" d="M64.9403 10.6079C64.9403 10.6079 64.5752 12.038 65.4421 13.2359C65.4421 13.2359 57.9414 16.6631 61.7739 22.7884C61.7739 22.7884 55.4446 16.9115 64.9403 10.6079Z" fill="white"/>
<path fill-rule="evenodd" clip-rule="evenodd" d="M70.2905 45.3076C70.3355 44.8233 70.8788 43.9929 72.5866 42.5692C76.7376 39.1077 84.6311 38.1513 84.7678 34.872C84.9045 31.5926 82.6222 31.9115 81.3003 31.2739C80.1756 30.7318 84.4217 30.3304 85.0498 29.1978C86.7178 30.5092 87.1452 34.0101 86.6088 35.4854C86.3406 36.2261 85.2177 37.0542 83.9649 38.1563C81.8436 40.02 78.6772 42.2816 74.547 43.8884C73.0953 44.4529 71.6748 44.9219 70.2905 45.3076Z" fill="#B636BC"/>
<path fill-rule="evenodd" clip-rule="evenodd" d="M88.0413 36.2994C90.4516 35.4884 92.8428 42.543 90.0951 45.2284C89.3078 45.9974 87.562 47.0431 85.3611 48.2781C87.3699 46.0945 90.4049 43.6497 89.3736 43.4025C88.2334 43.1293 88.6434 42.2638 89.7837 40.8519C90.8097 39.5821 88.5137 36.8385 88.0413 36.2994Z" fill="#B636BC"/>
<path fill-rule="evenodd" clip-rule="evenodd" d="M90.6282 46.4718C90.6282 46.4713 90.6299 46.4707 90.6299 46.4702C90.6835 46.5386 90.9119 46.8333 90.9621 46.915C91.8238 48.3132 93.1716 50.9757 93.253 54.0417C93.272 54.7606 93.2218 55.5018 93.0782 56.2541C92.9623 56.8626 92.7858 57.4764 92.5349 58.0901C92.0331 59.4662 91.2009 60.9025 89.8357 62.2369C88.5051 63.5393 86.6848 64.7374 84.2088 65.7011C80.5856 67.1121 75.5557 68.0203 68.593 68.0175C67.6881 68.0172 66.8178 68.0061 65.9786 67.9858C64.8816 67.2515 64.5027 66.9241 66.2104 66.7761C70.1762 66.4325 73.8046 66.9246 82.0788 63.5597C84.6916 62.497 80.2534 63.389 75.7495 63.6167C71.2438 63.8444 79.5699 62.0795 86.8129 58.0373C92.5989 54.8081 91.3601 48.77 90.6282 46.4718Z" fill="#B636BC"/>
<path fill-rule="evenodd" clip-rule="evenodd" d="M94.4122 63.2949C92.9709 64.2263 91.5555 64.8604 90.6056 65.1418L90.6039 65.1424C89.6107 65.3947 88.7352 65.5968 87.7541 65.7889C87.6122 65.8169 87.4669 65.8445 87.3198 65.872C91.0313 63.6535 93.0591 61.1312 94.0541 58.6429C94.6493 57.0083 94.8344 55.4512 94.8638 54.1825C94.8725 53.8705 94.8708 53.5762 94.8621 53.3022C94.7877 50.4817 93.6509 48.1157 92.6889 46.605C94.7133 47.2336 97.0059 48.4908 98.4282 50.6849C99.4854 53.8907 99.5702 58.5869 94.4122 63.2949Z" fill="#B636BC"/>
</svg>
