<svg width="304" height="304" viewBox="0 0 304 304" fill="none" xmlns="http://www.w3.org/2000/svg">
<rect width="304" height="304" fill="white"/>
<g clip-path="url(#clip0_401_2)">
<path fill-rule="evenodd" clip-rule="evenodd" d="M259.618 179.279C257.586 183.739 255.091 187.472 255.091 187.472C255.091 187.472 281.132 184.925 288.385 201.239C295.638 217.554 282.341 221.783 282.341 221.783V230.36C282.341 230.36 295.039 239.126 291.016 250.057C286.992 260.988 273.372 262.123 273.372 262.123C273.372 262.123 275.128 281.613 254.801 283.985C234.475 286.357 231.936 273.64 231.936 273.64C231.936 273.64 202.074 302.847 153.223 302.847C104.376 302.847 77.1708 276.059 77.1708 276.059C77.1708 276.059 73.3458 280.499 64.9645 282.949C56.5796 285.398 34.6546 284.143 32.9791 259.698C32.9791 259.698 10.4882 258.022 12.0829 222.621C13.8282 183.975 47.7685 186.323 47.7685 186.323C38.7809 169.658 33.6772 150.596 33.6772 130.351C33.6772 66.6427 84.2109 14.6387 147.37 12.2322C156.934 11.8679 163.203 12.3089 172.352 13.9017C227.912 23.5772 270.212 72.0663 270.212 130.351C270.212 147.797 266.42 164.366 259.618 179.279Z" fill="#25026A"/>
<path fill-rule="evenodd" clip-rule="evenodd" d="M61.2589 179.473C62.3159 181.437 61.5813 183.891 59.6167 184.949C57.6522 186.008 55.1956 185.274 54.1352 183.31C45.6952 167.662 40.9019 149.763 40.9019 130.754C40.9019 70.9394 88.3506 22.1142 147.647 19.8549C147.716 19.8523 159.341 18.7552 171.198 21.4401C223.317 30.5658 262.978 76.0662 262.978 130.754C262.978 147.113 259.431 162.649 253.062 176.631C252.025 179.105 251.306 180.416 251.306 180.416C250.239 182.377 247.783 183.103 245.822 182.038C243.86 180.972 243.132 178.516 244.2 176.555C244.2 176.555 244.778 175.48 245.622 173.46C245.639 173.42 245.655 173.381 245.672 173.342C251.592 160.361 254.89 145.94 254.89 130.754C254.89 80.0193 218.075 37.8097 169.709 29.3873C169.639 29.3754 169.569 29.3614 169.503 29.3458C158.669 26.8739 148.019 27.9318 147.956 27.9341C92.9811 30.0289 48.9928 75.2981 48.9928 130.754C48.9928 148.375 53.4339 164.968 61.2589 179.473Z" fill="#FF85E2"/>
<path fill-rule="evenodd" clip-rule="evenodd" d="M42.179 239.447C42.179 239.447 35.5566 237.5 34.1388 226.726C32.4004 213.532 43.6787 209.791 48.666 209.897C53.9204 210.008 56.7561 212.207 58.5693 208.081C60.3861 203.957 56.5067 199.832 46.9311 199.666C37.3591 199.502 24.3067 207.893 24.2319 224.994C24.1606 241.895 32.6996 249.118 44.2915 250.486C56.4568 251.921 59.3958 245.618 58.7367 243.061C58.0741 240.503 54.6899 238.689 52.3815 239.431C50.0696 240.173 45.1998 240.751 42.179 239.447Z" fill="white"/>
<path fill-rule="evenodd" clip-rule="evenodd" d="M65.1776 204.82L65.3771 235.312C65.3771 235.312 65.0493 250.003 82.4157 249.897C93.2417 249.831 96.4122 239.535 96.4122 236.368C96.4122 233.199 96.6117 208.978 96.6117 208.978C96.6117 208.978 96.8076 204.556 91.8559 204.556C86.9043 204.556 87.3674 208.384 87.3674 208.846C87.3674 209.308 87.1679 233.662 87.1679 233.662C87.1679 233.662 87.631 239.668 80.631 239.668C75.0168 239.668 74.5572 234.52 74.5572 233.464V204.094C74.5572 204.094 74.689 199.664 69.8692 199.664C65.0458 199.664 65.1776 204.82 65.1776 204.82Z" fill="white"/>
<path fill-rule="evenodd" clip-rule="evenodd" d="M104.595 252.142V212.295C104.595 211.399 104.609 208.005 108.72 208.005C113.009 208.005 112.849 210.232 112.849 210.232H119.286C119.286 210.232 132.492 210.429 132.492 225.18C132.492 236.467 119.667 237.539 117.601 237.539H113.757V253.049C113.757 253.049 113.921 256.679 108.802 256.679C104.477 256.679 104.595 252.142 104.595 252.142ZM113.547 228.187C113.547 228.187 122.759 229.159 122.759 223.837C122.759 218.514 113.547 219.866 113.547 219.866V228.187Z" fill="white"/>
<path fill-rule="evenodd" clip-rule="evenodd" d="M157.399 222.975C157.399 222.975 148.665 220.434 146.37 229.047C144.482 236.131 149.769 239.739 153.221 240.465C156.673 241.191 158.896 239.509 159.907 239.145C161.307 238.641 164.727 237.561 166.776 241.521C168.824 245.481 164.927 247.461 160.965 249.242C157.004 251.024 144.753 252.508 138.843 240.597C133.674 230.176 139.541 219.065 144.29 215.781C149.829 211.951 156.911 210.996 164.595 216.243C167.524 218.243 168.029 220.929 166.049 223.305C164.068 225.681 161.924 224.922 157.399 222.975Z" fill="white"/>
<path fill-rule="evenodd" clip-rule="evenodd" d="M172.974 241.875L181.559 215.723C181.559 215.723 183.208 208.958 189.649 208.958C196.086 208.958 197.159 214.898 197.159 214.898L206.403 243.69C206.403 243.69 208.134 250.232 202.278 250.356C198.398 250.439 197.49 246.825 197.49 246.825L195.26 239.4H184.199L181.31 247.65C181.31 247.65 180.914 251.655 175.286 250.356C169.921 249.119 172.974 241.875 172.974 241.875ZM192.948 230.49L189.375 219.712L186.169 230.49H192.948Z" fill="white"/>
<path fill-rule="evenodd" clip-rule="evenodd" d="M211.818 211.662L211.967 245.241C211.967 245.241 211.64 250.616 216.328 250.616C221.016 250.616 221.016 245.439 221.016 245.439V237.519L224.051 233.361L235.411 249.135C235.411 249.135 237.609 252.917 241.88 248.738C244.983 245.703 242.343 243.261 242.343 243.261L230.128 225.102L241.182 206.681C241.182 206.681 243.433 202.511 240.43 200.747C235.322 197.743 232.166 204.127 232.166 204.127L221.194 221.401L220.969 207.507C220.969 207.507 220.895 203.997 216.912 204.052C211.789 204.123 211.754 208.479 211.818 211.662Z" fill="white"/>
<path fill-rule="evenodd" clip-rule="evenodd" d="M248.549 205.779V244.909C248.549 244.909 248.321 250.704 254.708 250.704H274.547C274.547 250.704 278.345 251.217 278.605 244.909C278.776 240.856 275.374 240.402 275.374 240.402L258.392 240.252V230.789L265.456 230.639C265.67 230.532 269.082 230.428 268.986 225.323C268.904 221.025 265.306 220.875 265.306 220.875H257.939V209.985H274.048C274.048 209.985 278.042 209.107 278.042 204.765C278.042 200.423 273.699 199.954 273.699 199.954H254.794C254.794 199.954 248.524 199.4 248.549 205.779Z" fill="white"/>
<path fill-rule="evenodd" clip-rule="evenodd" d="M227.57 261.433H76.6731C76.6731 261.433 101.57 290.76 153.221 290.76C204.871 290.76 227.57 261.433 227.57 261.433Z" fill="#FF85E2"/>
<path fill-rule="evenodd" clip-rule="evenodd" d="M130.739 149.439C130.704 148.713 130.975 148.005 131.48 147.486C131.99 146.967 132.695 146.683 133.422 146.703L134.255 146.727C135.499 146.762 136.503 147.752 136.553 148.993L138.402 193.565C138.434 194.297 138.135 195.004 137.59 195.494C137.045 195.984 136.307 196.205 135.584 196.097L135.442 196.076C134.02 195.864 132.945 194.678 132.873 193.243L130.739 149.439ZM143.781 149.837C143.77 149.009 144.095 148.212 144.675 147.623C145.26 147.034 146.054 146.702 146.88 146.702C147.625 146.702 148.334 146.998 148.858 147.525C149.381 148.051 149.673 148.765 149.67 149.507L149.374 195.599C149.37 196.236 149.093 196.842 148.615 197.264C148.138 197.687 147.504 197.887 146.87 197.814L146.453 197.766C145.235 197.627 144.312 196.603 144.298 195.377L143.781 149.837ZM156.502 149.255C156.52 147.839 157.674 146.702 159.092 146.702C160.025 146.702 160.92 147.079 161.571 147.748C162.22 148.416 162.573 149.32 162.548 150.252L161.319 195.333C161.276 196.873 160.015 198.099 158.472 198.099H158.365C157.685 198.099 157.037 197.827 156.559 197.345C156.086 196.862 155.822 196.209 155.833 195.531L156.502 149.255ZM169.922 148.744C170.021 147.392 171.151 146.346 172.508 146.346H172.999C173.616 146.346 174.204 146.602 174.62 147.053C175.037 147.504 175.247 148.108 175.197 148.72L171.706 193.637C171.592 195.116 170.36 196.258 168.874 196.258H168.693C168.098 196.258 167.528 196.011 167.122 195.574C166.719 195.139 166.512 194.554 166.559 193.961L169.922 148.744ZM181.809 145.918C181.934 144.869 182.821 144.078 183.879 144.078C184.438 144.078 184.973 144.315 185.35 144.73C185.724 145.145 185.906 145.7 185.852 146.257L181.221 192.534C181.065 194.089 179.811 195.304 178.25 195.407L178.247 195.408C177.691 195.445 177.15 195.233 176.765 194.83C176.38 194.426 176.195 193.873 176.263 193.32L181.809 145.918ZM122.532 144.874L128.078 192.276C128.142 192.829 127.957 193.382 127.573 193.786C127.191 194.189 126.646 194.401 126.091 194.364C124.53 194.26 123.273 193.045 123.12 191.49L118.489 145.213C118.432 144.656 118.617 144.101 118.991 143.686C119.365 143.271 119.899 143.034 120.462 143.034C121.517 143.034 122.407 143.825 122.532 144.874ZM192.735 142.532C192.852 141.65 193.558 140.962 194.445 140.864C194.976 140.805 195.506 140.994 195.88 141.375C196.254 141.757 196.429 142.29 196.358 142.819L190.056 190.02C189.91 191.138 189.002 192.001 187.876 192.097L187.826 192.101C187.363 192.141 186.907 191.968 186.59 191.631C186.269 191.295 186.12 190.831 186.18 190.371L192.735 142.532ZM111.2 142.215L117.751 190.055C117.815 190.514 117.666 190.978 117.345 191.315C117.024 191.651 116.568 191.824 116.105 191.785L116.055 191.78C114.93 191.685 114.025 190.821 113.875 189.703L107.574 142.502C107.502 141.973 107.68 141.44 108.054 141.059C108.428 140.677 108.956 140.488 109.487 140.547L109.49 140.547C110.374 140.646 111.079 141.333 111.2 142.215ZM202.275 139.698C202.414 138.779 203.18 138.085 204.109 138.04C204.548 138.019 204.975 138.195 205.267 138.521C205.563 138.847 205.695 139.287 205.627 139.721L198.349 187.396C198.224 188.214 197.58 188.854 196.76 188.974C196.29 189.043 195.813 188.885 195.478 188.548C195.143 188.211 194.986 187.736 195.058 187.266L202.275 139.698ZM101.92 138.986L109.137 186.553C109.209 187.023 109.052 187.499 108.717 187.836C108.382 188.173 107.905 188.331 107.435 188.262C106.615 188.143 105.971 187.502 105.846 186.684L98.5679 139.009C98.5003 138.575 98.6321 138.135 98.9277 137.809C99.2198 137.483 99.6438 137.307 100.085 137.328C101.012 137.373 101.781 138.067 101.92 138.986ZM107.577 195.064C106.722 194.502 106.483 193.351 107.043 192.495C107.606 191.638 108.756 191.399 109.615 191.961C109.615 191.961 145.042 215.052 195.606 192.104C196.539 191.681 197.64 192.094 198.064 193.027C198.488 193.959 198.075 195.06 197.141 195.483C144.476 219.384 107.577 195.064 107.577 195.064Z" fill="#FAD1E3"/>
<path fill-rule="evenodd" clip-rule="evenodd" d="M202.513 119.737C201.48 122.574 199.766 125.534 196.956 128.285C194.216 130.969 190.469 133.439 185.371 135.425C177.911 138.334 167.556 140.206 153.221 140.2C130.422 140.191 117.882 136.875 113.828 135.569C115.104 130.754 117.081 127.551 119.724 125.389C121.872 123.634 124.43 122.566 127.326 121.831C128.527 121.526 129.788 121.279 131.099 121.063C134.9 120.439 139.125 120.094 143.674 119.547C154.183 117.569 164.399 114.654 172.935 111.043C176.882 109.2 180.69 107.209 184.156 105.276C189.678 101.929 195.851 97.7437 198.591 95.7861C198.701 95.9271 199.171 96.5346 199.275 96.703C201.049 99.5849 203.824 105.073 203.991 111.393C204.03 112.874 203.927 114.402 203.631 115.953C203.393 117.207 203.029 118.472 202.513 119.737Z" fill="#FE86E4"/>
<path fill-rule="evenodd" clip-rule="evenodd" d="M202.83 96.0635C209.427 98.1143 217.407 103.412 217.478 114.477C217.503 118.686 215.391 122.359 212.559 125.38C208.131 130.113 201.914 133.272 198.541 134.272L198.537 134.273C196.492 134.793 194.69 135.21 192.67 135.606C192.378 135.664 192.079 135.721 191.776 135.777C199.417 131.204 203.592 126.005 205.64 120.876C206.866 117.507 207.247 114.298 207.308 111.682C207.325 111.039 207.322 110.433 207.304 109.868C207.151 104.054 204.81 99.1775 202.83 96.0635Z" fill="#FE86E4"/>
<path fill-rule="evenodd" clip-rule="evenodd" d="M130.561 117.786C129.26 117.999 118.976 119.476 114.73 125.462C112.14 129.11 110.825 133.179 110.334 135.139C107.017 134.004 99.814 131.236 93.7616 126.799C89.0985 123.383 85.0731 118.986 84.3855 113.479C83.9295 109.846 84.9626 105.768 88.1153 101.204C88.126 101.19 88.1331 101.175 88.1438 101.16C88.1438 101.16 92.7677 93.8261 99.9993 95.1595C101.674 95.4685 103.362 95.7544 105.058 96.0161C106.504 96.3676 108.21 96.7959 110.152 97.2299C122.064 99.8946 142.206 102.714 166.686 93.5594C182.539 87.6318 192.46 76.8773 193.201 74.8282L193.215 74.8375C198.192 73.0594 203.165 87.6738 197.49 93.2261C195.221 95.4454 189.083 98.7827 181.93 102.742C178.845 104.449 175.507 106.188 172.051 107.815C165.717 110.798 158.999 113.404 152.761 114.731C149.423 115.441 146.203 115.905 143.132 116.275C138.583 116.822 134.358 117.162 130.561 117.786Z" fill="#FE86E4"/>
<path fill-rule="evenodd" clip-rule="evenodd" d="M147.785 95.3912C139.595 96.7851 132.16 96.8499 125.719 96.3223C119.902 95.8462 114.897 94.887 110.875 93.9876C108.731 93.5073 106.846 93.0512 105.25 92.6852C103.964 92.3893 102.863 92.1529 101.962 92.0105C101.998 89.1436 102.372 82.5338 104.88 77.0111C106.928 72.5049 110.466 68.7211 116.696 68.8126C118.559 68.8401 120.408 68.9394 122.235 69.0882C127.255 69.8416 135.067 71.6611 142.391 72.5028C149.32 73.2989 155.828 73.1575 159.551 70.8906C159.772 70.7556 159.993 70.6221 160.21 70.49C160.431 70.3825 160.645 70.2696 160.858 70.1518C163.452 68.7154 165.831 67.2603 168.054 65.8969C169.925 64.7497 171.684 63.6681 173.369 62.7174C175.46 61.5364 177.423 60.5562 179.336 59.9455C180.551 59.5582 181.773 59.5311 182.948 59.2726C189.756 57.7715 191.776 69.1171 190.312 73.1433C189.76 74.6701 187.448 76.377 184.869 78.6486C180.501 82.49 173.982 87.1518 165.479 90.4638C159.284 92.8771 153.36 94.442 147.785 95.3912Z" fill="#FE86E4"/>
<path fill-rule="evenodd" clip-rule="evenodd" d="M121.99 65.7412C121.146 65.6201 120.38 65.5293 119.713 65.4784C119.332 63.0907 118.919 57.677 121.951 53.6828C123.636 51.4656 126.418 49.7491 130.849 49.2076C135.822 48.6001 138.733 50.1272 141.551 51.4393C144.928 53.0098 148.191 54.3322 153.677 52.7652C158.892 51.2759 162.02 48.6596 164.492 46.8316C166.181 45.5826 167.388 44.6444 169.191 45.8471C171.567 47.4291 174.107 49.1381 175.799 51.2467C177.117 52.8877 177.869 54.7908 177.398 57.1098C177.391 57.1425 177.384 57.1753 177.377 57.208C175.924 57.9191 172.172 59.7613 166.483 62.9697C164.25 64.3394 161.856 65.8024 159.248 67.2466C159.042 67.3623 158.828 67.4716 158.614 67.5745C158.351 67.7326 158.087 67.8924 157.823 68.0544C154.56 70.0401 148.839 69.9006 142.772 69.2034C135.199 68.3332 127.112 66.4764 121.99 65.7412Z" fill="#FE86E4"/>
<path fill-rule="evenodd" clip-rule="evenodd" d="M49.5766 263.011C49.1198 262.948 48.4998 262.968 47.9077 263.235C45.0501 264.514 45.9638 268.115 50.3551 270.576C60.28 276.147 70.6897 271.107 71.8225 265.171C71.8831 264.867 71.8505 264.835 72.0929 264.643C72.0975 264.64 72.601 264.499 72.6057 264.5C72.7548 264.586 72.9506 264.621 73.0578 264.758C73.2816 265.043 73.221 265.075 73.1884 265.436C72.4658 272.751 60.7042 279.586 48.5557 274.198C39.2042 270.051 39.5166 261.17 45.9731 258.029C48.9939 256.558 54.0659 256.863 55.6229 260.604C56.2663 262.154 55.9725 263.611 55.8606 264.117C55.5903 265.365 54.574 265.968 54.4062 266.067C54.0565 266.274 53.665 266.419 53.2641 266.478C51.9495 266.67 51.0451 265.99 50.8866 265.872C49.861 265.099 49.6978 264.012 49.6699 263.823C49.6093 263.399 49.5393 263.233 49.5766 263.011Z" fill="#B636BC"/>
<path fill-rule="evenodd" clip-rule="evenodd" d="M259.374 263.013C259.406 263.233 259.336 263.4 259.276 263.823C259.248 264.011 259.085 265.099 258.059 265.872C257.901 265.989 256.996 266.669 255.682 266.477C254.409 266.29 253.747 265.413 253.63 265.261C253.164 264.638 253.174 264.62 253.029 263.855C252.279 259.793 255.453 256.691 260.343 257.278C265.513 257.898 269.289 263.068 266.916 268.321C264.614 273.41 257.868 275.6 253.523 276.03C244.055 276.967 236.335 271.275 235.757 265.436C235.725 265.074 235.664 265.043 235.888 264.757C235.892 264.752 236.345 264.498 236.349 264.499C236.517 264.546 236.718 264.534 236.853 264.643C237.151 264.878 237.072 264.935 237.151 265.308C238.321 271.027 248.61 276.175 258.591 270.576C263.168 268.009 263.863 264.299 260.851 263.155C260.381 262.976 259.807 262.957 259.374 263.013Z" fill="#B636BC"/>
<path fill-rule="evenodd" clip-rule="evenodd" d="M88.6812 177.126C88.7916 177.701 88.4158 178.257 87.8393 178.368L73.0954 181.198C72.5189 181.308 71.9638 180.931 71.8534 180.356C71.743 179.781 72.1187 179.225 72.6953 179.114L87.4392 176.284C88.0157 176.174 88.5708 176.551 88.6812 177.126Z" fill="#FAD1E3"/>
<path fill-rule="evenodd" clip-rule="evenodd" d="M214.001 174.879C213.891 175.454 214.267 176.01 214.843 176.12L229.587 178.951C230.164 179.061 230.719 178.684 230.829 178.109C230.939 177.534 230.564 176.978 229.987 176.867L215.243 174.037C214.667 173.927 214.112 174.304 214.001 174.879Z" fill="#FAD1E3"/>
<path fill-rule="evenodd" clip-rule="evenodd" d="M83.7356 168.933C83.8494 169.507 83.4769 170.065 82.901 170.179L68.1742 173.096C67.5983 173.21 67.041 172.836 66.9272 172.262C66.8133 171.688 67.1858 171.13 67.7617 171.016L82.4886 168.098C83.0645 167.984 83.6217 168.358 83.7356 168.933Z" fill="#FAD1E3"/>
<path fill-rule="evenodd" clip-rule="evenodd" d="M218.949 166.684C218.835 167.259 219.208 167.817 219.784 167.931L234.51 170.848C235.086 170.962 235.644 170.588 235.757 170.014C235.871 169.44 235.499 168.882 234.923 168.767L220.196 165.85C219.62 165.736 219.063 166.11 218.949 166.684Z" fill="#FAD1E3"/>
<path fill-rule="evenodd" clip-rule="evenodd" d="M80.2547 160.624C80.3444 161.203 79.9489 161.745 79.3688 161.835L64.5328 164.135C63.9527 164.225 63.4115 163.828 63.3218 163.249C63.232 162.671 63.6275 162.129 64.2077 162.039L79.0436 159.739C79.6238 159.649 80.1649 160.046 80.2547 160.624Z" fill="#FAD1E3"/>
<path fill-rule="evenodd" clip-rule="evenodd" d="M222.429 158.376C222.339 158.955 222.735 159.497 223.315 159.587L238.151 161.887C238.731 161.977 239.272 161.58 239.362 161.001C239.452 160.423 239.056 159.881 238.476 159.791L223.64 157.491C223.06 157.401 222.519 157.798 222.429 158.376Z" fill="#FAD1E3"/>
<path fill-rule="evenodd" clip-rule="evenodd" d="M78.3829 152.336C78.4456 152.918 78.0253 153.441 77.4416 153.504L62.5146 155.112C61.9309 155.174 61.4088 154.753 61.346 154.171C61.2833 153.589 61.7036 153.065 62.2873 153.003L77.2143 151.395C77.7981 151.332 78.3202 151.754 78.3829 152.336Z" fill="#FAD1E3"/>
<path fill-rule="evenodd" clip-rule="evenodd" d="M224.301 150.088C224.238 150.67 224.659 151.193 225.242 151.256L240.169 152.863C240.753 152.926 241.275 152.505 241.338 151.923C241.401 151.341 240.98 150.817 240.397 150.755L225.469 149.147C224.886 149.084 224.364 149.506 224.301 150.088Z" fill="#FAD1E3"/>
<path fill-rule="evenodd" clip-rule="evenodd" d="M77.2344 143.711C77.2788 144.295 76.8422 144.805 76.2568 144.849L61.2865 145.987C60.7011 146.031 60.1926 145.593 60.1482 145.01C60.1039 144.426 60.5404 143.916 61.1258 143.872L76.0961 142.734C76.6815 142.69 77.1901 143.128 77.2344 143.711Z" fill="#FAD1E3"/>
<path fill-rule="evenodd" clip-rule="evenodd" d="M70.0404 131.57C70.0404 132.155 69.5654 132.63 68.9799 132.63H64.0627C63.4772 132.63 63.0022 132.155 63.0022 131.57C63.0022 130.985 63.4772 130.51 64.0627 130.51H68.9799C69.5654 130.51 70.0404 130.985 70.0404 131.57Z" fill="#FAD1E3"/>
<path fill-rule="evenodd" clip-rule="evenodd" d="M231.196 128.01C231.196 128.595 231.671 129.07 232.257 129.07H237.174C237.759 129.07 238.234 128.595 238.234 128.01C238.234 127.424 237.759 126.949 237.174 126.949H232.257C231.671 126.949 231.196 127.424 231.196 128.01Z" fill="#FAD1E3"/>
<path fill-rule="evenodd" clip-rule="evenodd" d="M70.8243 117.414C70.7388 117.993 70.1995 118.393 69.6203 118.308L64.7558 117.591C64.1767 117.505 63.7762 116.966 63.8617 116.387C63.9472 115.808 64.4865 115.407 65.0657 115.493L69.9302 116.21C70.5093 116.295 70.9099 116.834 70.8243 117.414Z" fill="#FAD1E3"/>
<path fill-rule="evenodd" clip-rule="evenodd" d="M230.412 113.853C230.498 114.432 231.037 114.833 231.616 114.747L236.481 114.03C237.06 113.945 237.46 113.406 237.375 112.826C237.289 112.247 236.75 111.847 236.171 111.932L231.306 112.649C230.727 112.735 230.327 113.274 230.412 113.853Z" fill="#FAD1E3"/>
<path fill-rule="evenodd" clip-rule="evenodd" d="M74.5849 102.442C74.4532 103.013 73.8834 103.369 73.313 103.238L68.5217 102.133C67.9513 102.002 67.5953 101.432 67.727 100.862C67.8587 100.291 68.4284 99.9348 68.9989 100.066L73.7902 101.171C74.3606 101.302 74.7166 101.872 74.5849 102.442Z" fill="#FAD1E3"/>
<path fill-rule="evenodd" clip-rule="evenodd" d="M226.653 98.8819C226.785 99.4524 227.355 99.8086 227.925 99.6771L232.717 98.5726C233.287 98.4411 233.643 97.8714 233.511 97.301C233.38 96.7306 232.81 96.3743 232.239 96.5058L227.448 97.6103C226.878 97.7418 226.522 98.3115 226.653 98.8819Z" fill="#FAD1E3"/>
<path fill-rule="evenodd" clip-rule="evenodd" d="M81.0651 88.0806C80.8419 88.6219 80.2217 88.8804 79.6804 88.6575L75.134 86.7858C74.5927 86.5629 74.3346 85.9428 74.5577 85.4015C74.7808 84.8602 75.4011 84.6017 75.9424 84.8246L80.4888 86.6963C81.0301 86.9192 81.2882 87.5393 81.0651 88.0806Z" fill="#FAD1E3"/>
<path fill-rule="evenodd" clip-rule="evenodd" d="M220.171 84.52C220.394 85.0613 221.014 85.3198 221.555 85.097L226.102 83.2252C226.643 83.0024 226.901 82.3822 226.678 81.841C226.455 81.2997 225.834 81.0412 225.293 81.264L220.747 83.1358C220.206 83.3586 219.947 83.9788 220.171 84.52Z" fill="#FAD1E3"/>
<path fill-rule="evenodd" clip-rule="evenodd" d="M90.9192 74.3084C90.5861 74.7898 89.925 74.9105 89.4436 74.5776L85.3996 71.7818C84.9182 71.449 84.7979 70.7882 85.1311 70.3067C85.4642 69.8253 86.1253 69.7047 86.6067 70.0375L90.6507 72.8333C91.1321 73.1661 91.2524 73.827 90.9192 74.3084Z" fill="#FAD1E3"/>
<path fill-rule="evenodd" clip-rule="evenodd" d="M210.316 70.7479C210.65 71.2293 211.311 71.3499 211.792 71.0171L215.836 68.2213C216.317 67.8884 216.438 67.2276 216.105 66.7462C215.771 66.2648 215.11 66.1441 214.629 66.477L210.585 69.2727C210.103 69.6056 209.983 70.2664 210.316 70.7479Z" fill="#FAD1E3"/>
<path fill-rule="evenodd" clip-rule="evenodd" d="M104.443 62.9576C103.987 63.325 103.319 63.2537 102.952 62.7982L99.8644 58.9726C99.4969 58.5171 99.5686 57.8494 100.024 57.482C100.48 57.1146 101.148 57.186 101.516 57.6414L104.603 61.467C104.971 61.9225 104.899 62.5903 104.443 62.9576Z" fill="#FAD1E3"/>
<path fill-rule="evenodd" clip-rule="evenodd" d="M196.792 59.3971C197.248 59.7645 197.916 59.6931 198.284 59.2376L201.371 55.412C201.739 54.9566 201.667 54.2888 201.211 53.9214C200.755 53.554 200.087 53.6254 199.72 54.0809L196.633 57.9065C196.265 58.3619 196.337 59.0297 196.792 59.3971Z" fill="#FAD1E3"/>
<path fill-rule="evenodd" clip-rule="evenodd" d="M116.819 51.7674C116.316 52.066 115.665 51.8999 115.366 51.3966L114.863 50.5494C114.564 50.0461 114.73 49.3952 115.234 49.0966C115.737 48.798 116.388 48.9641 116.687 49.4674L117.19 50.3147C117.489 50.818 117.323 51.4688 116.819 51.7674Z" fill="#FAD1E3"/>
<path fill-rule="evenodd" clip-rule="evenodd" d="M184.42 48.2069C184.923 48.5055 185.574 48.3393 185.873 47.8361L186.376 46.9888C186.675 46.4855 186.509 45.8347 186.005 45.5361C185.502 45.2375 184.851 45.4036 184.552 45.9069L184.049 46.7541C183.75 47.2574 183.916 47.9083 184.42 48.2069Z" fill="#FAD1E3"/>
<path fill-rule="evenodd" clip-rule="evenodd" d="M225.45 141.463C225.406 142.047 225.843 142.557 226.428 142.601L241.398 143.739C241.984 143.783 242.492 143.345 242.537 142.762C242.581 142.178 242.144 141.668 241.559 141.624L226.589 140.486C226.003 140.442 225.495 140.88 225.45 141.463Z" fill="#FAD1E3"/>
<path fill-rule="evenodd" clip-rule="evenodd" d="M124.909 274.865L124.595 277.939C124.566 278.221 124.454 278.451 124.261 278.629C124.068 278.795 123.831 278.864 123.549 278.835C123.278 278.807 123.065 278.693 122.91 278.49C122.756 278.277 122.694 278.03 122.723 277.748L123.686 268.345C123.715 268.063 123.831 267.839 124.034 267.674C124.249 267.499 124.498 267.425 124.78 267.454L128.491 267.833C129.055 267.891 129.564 268.108 130.019 268.483C130.485 268.859 130.841 269.339 131.089 269.924C131.336 270.508 131.424 271.142 131.354 271.825C131.285 272.497 131.071 273.094 130.71 273.616C130.35 274.139 129.903 274.542 129.37 274.827C128.848 275.103 128.305 275.212 127.741 275.154L124.909 274.865ZM125.099 273.01L127.931 273.3C128.137 273.321 128.347 273.254 128.56 273.101C128.773 272.947 128.958 272.741 129.116 272.484C129.275 272.215 129.37 271.929 129.401 271.625C129.434 271.311 129.399 271.011 129.296 270.727C129.194 270.442 129.053 270.209 128.874 270.026C128.697 269.833 128.505 269.725 128.299 269.704L125.467 269.415L125.099 273.01ZM137.379 277.815L136.379 279.738C136.287 279.939 136.154 280.093 135.982 280.2C135.821 280.296 135.648 280.338 135.464 280.324C135.17 280.301 134.959 280.203 134.83 280.029C134.702 279.855 134.647 279.648 134.665 279.409C134.673 279.311 134.697 279.209 134.738 279.103L139.557 269.668C139.661 269.457 139.804 269.299 139.987 269.193C140.182 269.087 140.381 269.053 140.586 269.092C140.781 269.107 140.957 269.18 141.11 269.312C141.276 269.435 141.388 269.602 141.449 269.815L144.719 279.68C144.762 279.825 144.779 279.958 144.77 280.077C144.747 280.371 144.631 280.597 144.422 280.756C144.224 280.915 144.01 280.986 143.782 280.968C143.586 280.953 143.411 280.88 143.258 280.748C143.114 280.616 143.008 280.444 142.937 280.23L142.243 278.192L137.379 277.815ZM141.584 276.254L140.242 272.312L138.323 276.002L141.584 276.254ZM153.067 277.071L153.067 280.244C153.067 280.528 152.991 280.767 152.838 280.964C152.685 281.149 152.473 281.241 152.2 281.242C151.895 281.241 151.622 281.149 151.382 280.964C151.142 280.767 151.022 280.527 151.023 280.244L151.023 270.792C151.023 270.508 151.116 270.274 151.301 270.089C151.497 269.892 151.737 269.794 152.02 269.794L156.732 269.795C157.299 269.794 157.828 269.947 158.319 270.252C158.821 270.546 159.224 270.961 159.529 271.495C159.835 272.018 159.987 272.623 159.988 273.31C159.988 273.725 159.9 274.128 159.726 274.52C159.562 274.913 159.333 275.267 159.038 275.583C158.844 275.8 158.631 275.984 158.401 276.134C158.57 276.253 158.717 276.386 158.842 276.531C159.05 276.75 159.207 276.989 159.316 277.251C159.436 277.502 159.507 277.774 159.529 278.069C159.572 278.341 159.6 278.581 159.611 278.788C159.633 278.995 159.665 279.17 159.709 279.312C159.764 279.453 159.862 279.562 160.004 279.639C160.243 279.78 160.391 279.988 160.445 280.26C160.511 280.522 160.45 280.756 160.265 280.963C160.145 281.105 159.993 281.198 159.807 281.241C159.622 281.274 159.436 281.274 159.251 281.241C159.066 281.197 158.913 281.143 158.793 281.078C158.607 280.968 158.422 280.81 158.236 280.603C158.051 280.386 157.898 280.097 157.778 279.736C157.67 279.377 157.615 278.914 157.615 278.346C157.615 278.161 157.582 277.992 157.517 277.84C157.451 277.676 157.359 277.54 157.239 277.431C157.119 277.311 156.966 277.224 156.781 277.169C156.595 277.104 156.377 277.071 156.127 277.071L153.067 277.071ZM153.068 275.387L156.65 275.387C156.846 275.387 157.037 275.3 157.223 275.126C157.408 274.94 157.561 274.694 157.681 274.389C157.8 274.073 157.861 273.73 157.861 273.359C157.861 272.88 157.73 272.481 157.468 272.166C157.217 271.839 156.945 271.675 156.65 271.675L153.067 271.675L153.068 275.387ZM167.865 279.667C167.864 279.949 167.761 280.19 167.554 280.386C167.346 280.571 167.107 280.664 166.834 280.664C166.528 280.664 166.283 280.571 166.098 280.386C165.912 280.19 165.82 279.95 165.82 279.667L165.82 270.215C165.82 269.931 165.918 269.696 166.115 269.511C166.311 269.315 166.562 269.217 166.867 269.217C167.129 269.217 167.358 269.315 167.555 269.511C167.762 269.696 167.865 269.931 167.865 270.215L167.865 279.667ZM177.722 279.186C176.963 279.275 176.271 279.262 175.642 279.149C175.013 279.024 174.394 278.756 173.786 278.344C173.632 278.241 173.508 278.118 173.414 277.976C173.321 277.832 173.265 277.686 173.247 277.534C173.218 277.285 173.28 277.058 173.432 276.854C173.593 276.638 173.809 276.513 174.08 276.482C174.286 276.458 174.478 276.501 174.656 276.613C175.106 276.901 175.542 277.107 175.963 277.234C176.395 277.36 176.909 277.388 177.504 277.318C177.905 277.272 178.266 277.169 178.589 277.011C178.909 276.842 179.16 276.642 179.342 276.413C179.523 276.172 179.598 275.917 179.566 275.645C179.529 275.321 179.399 275.056 179.177 274.852C178.956 274.647 178.636 274.492 178.218 274.387C177.798 274.272 177.274 274.206 176.647 274.191C176.051 274.173 175.522 274.103 175.057 273.981C174.592 273.849 174.191 273.665 173.856 273.43C173.532 273.182 173.272 272.883 173.077 272.532C172.881 272.171 172.756 271.758 172.702 271.292C172.62 270.588 172.729 269.967 173.028 269.427C173.338 268.886 173.787 268.449 174.375 268.118C174.962 267.786 175.63 267.576 176.377 267.489C177.081 267.407 177.744 267.44 178.364 267.587C178.995 267.722 179.519 267.93 179.936 268.211C180.279 268.423 180.47 268.692 180.507 269.017C180.535 269.255 180.468 269.482 180.306 269.699C180.145 269.915 179.94 270.038 179.691 270.066C179.528 270.085 179.377 270.054 179.235 269.972C179.044 269.84 178.795 269.726 178.487 269.63C178.178 269.524 177.856 269.446 177.521 269.397C177.185 269.338 176.876 269.325 176.594 269.357C176.128 269.411 175.74 269.517 175.429 269.674C175.129 269.83 174.909 270.02 174.77 270.244C174.632 270.469 174.578 270.716 174.61 270.988C174.648 271.313 174.772 271.573 174.981 271.767C175.199 271.951 175.495 272.086 175.868 272.174C176.239 272.252 176.68 272.311 177.189 272.35C177.854 272.394 178.439 272.468 178.945 272.574C179.462 272.678 179.898 272.841 180.254 273.063C180.608 273.275 180.889 273.566 181.096 273.937C181.303 274.297 181.439 274.753 181.503 275.305C181.585 276.009 181.46 276.638 181.13 277.192C180.799 277.747 180.33 278.197 179.722 278.542C179.125 278.885 178.459 279.1 177.722 279.186Z" fill="#25026A"/>
<path fill-rule="evenodd" clip-rule="evenodd" d="M212.43 268.059C212.43 268.396 212.157 268.67 211.82 268.67H190.028C189.691 268.67 189.417 268.396 189.417 268.059C189.417 267.723 189.691 267.449 190.028 267.449H211.82C212.157 267.449 212.43 267.723 212.43 268.059ZM206.49 273.197C206.49 273.533 206.216 273.807 205.879 273.807H184.088C183.751 273.807 183.477 273.533 183.477 273.197C183.477 272.86 183.751 272.587 184.088 272.587H205.879C206.216 272.587 206.49 272.86 206.49 273.197ZM190.505 278.467C190.505 278.804 190.231 279.078 189.895 279.078H188.94C188.604 279.078 188.33 278.804 188.33 278.467C188.33 278.13 188.604 277.857 188.94 277.857H189.895C190.231 277.857 190.505 278.13 190.505 278.467ZM194.346 278.467C194.346 278.804 194.073 279.078 193.736 279.078H192.781C192.444 279.078 192.171 278.804 192.171 278.467C192.171 278.13 192.444 277.857 192.781 277.857H193.736C194.073 277.857 194.346 278.13 194.346 278.467Z" fill="#25026A"/>
<path fill-rule="evenodd" clip-rule="evenodd" d="M91.7302 268.059C91.7302 268.396 92.0038 268.67 92.3408 268.67H114.132C114.469 268.67 114.743 268.396 114.743 268.059C114.743 267.723 114.469 267.449 114.132 267.449H92.3408C92.0038 267.449 91.7302 267.723 91.7302 268.059ZM97.6707 273.197C97.6707 273.533 97.944 273.807 98.281 273.807H120.073C120.41 273.807 120.683 273.533 120.683 273.197C120.683 272.86 120.41 272.587 120.073 272.587H98.281C97.944 272.587 97.6707 272.86 97.6707 273.197ZM113.655 278.467C113.655 278.804 113.929 279.078 114.266 279.078H115.22C115.557 279.078 115.83 278.804 115.83 278.467C115.83 278.13 115.557 277.857 115.22 277.857H114.266C113.929 277.857 113.655 278.13 113.655 278.467ZM109.814 278.467C109.814 278.804 110.088 279.078 110.425 279.078H111.379C111.716 279.078 111.99 278.804 111.99 278.467C111.99 278.13 111.716 277.857 111.379 277.857H110.425C110.088 277.857 109.814 278.13 109.814 278.467Z" fill="#25026A"/>
<path fill-rule="evenodd" clip-rule="evenodd" d="M137.817 68.521C131.836 67.5821 126.001 66.3174 121.99 65.7413C121.146 65.6203 120.38 65.5295 119.713 65.4785C119.332 63.0909 118.919 57.6771 121.951 53.6829C123.636 51.4658 126.418 49.7493 130.849 49.2077C134.497 48.7623 137.034 49.4644 139.239 50.388C141.568 52.3926 142.06 54.7806 148.85 54.0685C160.356 52.8626 141.454 58.9646 138.049 58.7299C134.643 58.4953 136.05 62.842 150.88 61.2778C155.038 60.8392 142.63 66.3576 137.814 64.7148C133.001 63.072 133.236 66.123 136.759 67.6487C137.457 67.9513 137.767 68.2451 137.817 68.521Z" fill="white"/>
<path fill-rule="evenodd" clip-rule="evenodd" d="M121.466 95.8777C117.433 95.3653 113.882 94.66 110.875 93.9881C108.731 93.5078 106.846 93.0517 105.25 92.6857C103.964 92.3898 102.863 92.1534 101.962 92.011C101.998 89.1441 102.372 82.5343 104.88 77.0116C106.928 72.5054 110.466 68.7216 116.696 68.8131C118.559 68.8406 120.408 68.9399 122.235 69.0887C127.255 69.8421 135.067 71.6616 142.391 72.5033C146.548 72.9807 150.553 73.121 153.898 72.6674C149.722 74.6381 142.028 77.4267 132.947 76.7285C119.211 75.6725 120.504 85.7644 130.247 85.7644C139.994 85.7644 131.772 92.5707 120.618 90.224C111.224 88.2472 117.074 93.7738 121.466 95.8777Z" fill="white"/>
<path fill-rule="evenodd" clip-rule="evenodd" d="M113.825 126.834C111.826 130.087 110.765 133.422 110.334 135.138C107.017 134.004 99.814 131.235 93.7616 126.799C89.0985 123.383 85.0731 118.986 84.3855 113.478C83.9295 109.846 84.9626 105.767 88.1153 101.204C88.126 101.189 88.1331 101.174 88.1438 101.159C88.1438 101.159 92.7677 93.8257 99.9993 95.1591C101.674 95.4682 103.362 95.7541 105.058 96.0158C106.504 96.3672 108.21 96.7955 110.152 97.2296C118.146 99.0177 129.845 100.876 144.073 99.138C141.775 101.017 137.561 103.152 130.66 102.462C118.922 101.289 111.434 108.77 121.858 110.09C132.278 111.41 106.365 110.031 101.962 115.312C97.559 120.593 115.104 116.104 114.811 121.825C114.737 123.269 114.356 125.021 113.825 126.834Z" fill="white"/>
<path fill-rule="evenodd" clip-rule="evenodd" d="M123.945 137.953C118.901 137.068 115.577 136.132 113.828 135.569C115.104 130.754 117.081 127.551 119.724 125.389C121.872 123.634 124.43 122.566 127.326 121.831C128.527 121.526 129.788 121.279 131.099 121.063C134.9 120.439 139.125 120.094 143.674 119.547C154.183 117.569 164.399 114.654 172.935 111.043C174.905 110.123 176.843 109.166 178.716 108.197C171.029 112.853 161.336 120.322 156.69 121.696C136.734 127.599 133.215 124.122 122.171 131.383C115.802 135.572 118.246 135.777 123.945 137.953Z" fill="white"/>
<path fill-rule="evenodd" clip-rule="evenodd" d="M155.757 68.9525C160.78 66.1693 168.069 61.6114 172.511 58.1186C174.559 56.5078 172.489 53.8581 171.175 49.0702C170.37 46.1371 167.31 46.193 167.538 45.2904C168.051 45.2815 168.589 45.4442 169.191 45.8472C171.567 47.4292 174.107 49.1382 175.799 51.2468C177.117 52.8878 177.847 54.63 177.53 56.9753C177.505 57.1822 177.409 57.1936 177.377 57.2082C175.924 57.9192 172.172 59.7614 166.483 62.9698C164.25 64.3395 161.856 65.8025 159.248 67.2467C159.042 67.3624 158.828 67.4717 158.614 67.5746C158.35 67.7327 158.087 67.8925 157.823 68.0545C157.214 68.4241 156.523 68.72 155.757 68.9525Z" fill="#B636BC"/>
<path fill-rule="evenodd" clip-rule="evenodd" d="M169.732 41.9243C169.732 41.9243 167.541 51.7974 156.58 53.6906C145.615 55.5842 123.618 50.7166 131.694 30.8722C139.773 11.0286 162.39 18.621 166.8 24.4614C172.493 31.9989 169.732 41.9243 169.732 41.9243Z" fill="#DF1F2E"/>
<path fill-rule="evenodd" clip-rule="evenodd" d="M171.346 42.3212V42.3302C171.164 43.0952 168.518 53.3146 156.862 55.3278C152.006 56.1664 145.099 55.7492 139.349 53.4308C135.345 51.8151 131.907 49.2793 129.973 45.7001C127.903 41.8707 127.49 36.7998 130.155 30.2471C136.25 15.277 149.997 14.7331 159.341 17.9507C163.441 19.3616 166.669 21.5291 168.126 23.4615C174.053 31.3069 171.553 41.536 171.346 42.3212ZM168.133 41.4803C168.133 41.4803 170.694 32.3742 165.475 25.4624C164.289 23.8908 161.592 22.2389 158.258 21.0913C150.26 18.3377 138.451 18.6877 133.236 31.4989C131.056 36.8529 131.206 40.9924 132.898 44.1214C134.472 47.0375 137.329 49.0343 140.592 50.3503C145.747 52.4293 151.942 52.8066 156.295 52.0549C166.109 50.3597 168.111 41.5651 168.111 41.5651C168.119 41.5367 168.126 41.5083 168.133 41.4803Z" fill="#25026A"/>
<path fill-rule="evenodd" clip-rule="evenodd" d="M155.437 25.2845C155.469 25.8079 155.283 26.3213 154.924 26.7005C154.56 27.08 154.054 27.2897 153.531 27.2794C153.374 27.2851 153.214 27.2819 153.057 27.2787C151.931 27.2563 150.969 26.4605 150.738 25.3596C149.943 20.8659 149.691 9.37108 165.796 1.9944C166.843 1.50589 168.065 1.55681 169.07 2.13148C170.074 2.70614 170.737 3.73264 170.847 4.88411C170.862 4.97953 170.869 5.07068 170.879 5.15685C170.926 5.63787 170.651 6.09255 170.206 6.27912C167 7.69478 154.656 13.9093 155.437 25.2845Z" fill="#F9FAF4"/>
<path fill-rule="evenodd" clip-rule="evenodd" d="M157.093 25.1738C157.161 26.1615 156.808 27.1314 156.124 27.8471C155.451 28.5521 154.517 28.9473 153.552 28.9401C153.377 28.9451 153.199 28.9426 153.025 28.9391C151.126 28.901 149.505 27.559 149.113 25.7015C149.11 25.6837 149.106 25.6659 149.103 25.6477C148.583 22.7139 148.276 17.0377 151.899 11.2323C154.25 7.46489 158.276 3.6117 165.098 0.485923C166.637 -0.227604 168.425 -0.151766 169.896 0.68994C171.357 1.52524 172.322 3.0114 172.497 4.67487C172.511 4.78774 172.522 4.89598 172.532 4.99924L172.475 5.88153L172.151 6.68194L171.599 7.34348C171.599 7.34348 170.847 7.81098 170.876 7.79816C169.358 8.46896 165.671 10.2741 162.458 13.2625C159.401 16.1045 156.744 20.0438 157.093 25.171V25.1738ZM153.776 25.3978V25.3946C153.349 19.148 156.47 14.2936 160.192 10.831C163.53 7.72909 167.32 5.77044 169.176 4.92055C169.087 4.35549 168.745 3.85916 168.243 3.57289C167.709 3.26633 167.057 3.23892 166.498 3.49955C166.494 3.50133 166.49 3.50275 166.487 3.50418C160.427 6.2796 156.808 9.64464 154.72 12.9901C151.7 17.8328 151.938 22.5679 152.369 25.0407C152.451 25.3732 152.747 25.6111 153.092 25.6182C153.217 25.6207 153.342 25.6239 153.47 25.6193C153.502 25.6182 153.531 25.6178 153.563 25.6185C153.623 25.6196 153.68 25.5961 153.719 25.5537C153.759 25.5117 153.78 25.4555 153.776 25.3978Z" fill="#25026A"/>
<path fill-rule="evenodd" clip-rule="evenodd" d="M145.701 21.8652C145.701 21.8652 144.949 24.813 146.734 27.2822C146.734 27.2822 131.291 34.3463 139.182 46.9719C139.182 46.9719 126.151 34.8583 145.701 21.8652Z" fill="white"/>
<path fill-rule="evenodd" clip-rule="evenodd" d="M156.715 93.3897C156.808 92.3913 157.927 90.6798 161.443 87.7452C169.989 80.6103 186.24 78.6388 186.521 71.8795C186.803 65.1199 182.104 65.7772 179.383 64.463C177.067 63.3457 185.809 62.5182 187.102 60.1836C190.536 62.8867 191.416 70.1028 190.312 73.1439C189.76 74.6706 187.448 76.3775 184.869 78.6491C180.501 82.4906 173.982 87.1524 165.479 90.4644C162.49 91.6279 159.565 92.5946 156.715 93.3897Z" fill="#B636BC"/>
<path fill-rule="evenodd" clip-rule="evenodd" d="M193.261 74.8214C198.224 73.1498 203.147 87.6909 197.49 93.2261C195.869 94.8112 192.275 96.9668 187.743 99.5122C191.879 95.0113 198.128 89.9721 196.004 89.4626C193.657 88.8994 194.501 87.1155 196.849 84.2052C198.961 81.5878 194.234 75.9327 193.261 74.8214Z" fill="#B636BC"/>
<path fill-rule="evenodd" clip-rule="evenodd" d="M198.587 95.7893C198.587 95.7883 198.591 95.7872 198.591 95.7861C198.701 95.9271 199.172 96.5346 199.275 96.703C201.049 99.5849 203.824 105.073 203.991 111.393C204.031 112.874 203.927 114.402 203.632 115.953C203.393 117.207 203.03 118.472 202.513 119.737C201.48 122.574 199.766 125.534 196.956 128.285C194.216 130.969 190.469 133.439 185.371 135.425C177.911 138.334 167.556 140.206 153.221 140.2C151.358 140.199 149.566 140.177 147.838 140.135C145.58 138.621 144.8 137.946 148.316 137.641C156.48 136.933 163.951 137.947 180.986 131.011C186.365 128.821 177.227 130.66 167.955 131.129C158.678 131.598 175.82 127.96 190.732 119.628C202.645 112.972 200.094 100.527 198.587 95.7893Z" fill="#B636BC"/>
<path fill-rule="evenodd" clip-rule="evenodd" d="M206.378 130.465C203.41 132.385 200.496 133.692 198.541 134.272L198.537 134.273C196.492 134.793 194.69 135.21 192.67 135.606C192.378 135.664 192.079 135.721 191.776 135.777C199.417 131.204 203.592 126.005 205.64 120.876C206.866 117.507 207.247 114.298 207.308 111.682C207.325 111.039 207.322 110.433 207.304 109.868C207.151 104.054 204.81 99.1775 202.83 96.0635C206.998 97.3591 211.718 99.9505 214.646 104.473C216.823 111.081 216.997 120.761 206.378 130.465Z" fill="#B636BC"/>
</g>
<defs>
<clipPath id="clip0_401_2">
<rect width="280" height="303" fill="white" transform="translate(12)"/>
</clipPath>
</defs>
</svg>
